<svg width="115" height="31" viewBox="0 0 115 31" fill="none" xmlns="http://www.w3.org/2000/svg">
<path d="M115 25.5474L110.83 25.421L102.236 11.141V25.5474H98.0662V4.31688H102.11L111.082 18.7233V4.31688H115V25.5474Z" fill="#232323"/>
<path d="M16.4298 30.9814C16.177 30.9814 14.7869 30.6023 14.4078 30.4759C9.1002 28.7067 4.5508 21.8826 3.41345 16.575C3.41345 15.9431 6.95187 12.0256 7.20462 12.1519C8.59471 18.976 10.8694 30.0968 19.7155 29.9704L17.0616 30.9814C16.8089 30.9814 16.5562 30.9814 16.3034 30.9814H16.4298Z" fill="#232323"/>
<path d="M83.5334 4.19053C89.3466 3.30592 93.3905 6.46523 94.2751 12.152C95.1597 17.8387 92.1268 27.0639 83.5334 25.8002C73.55 24.2837 73.9292 5.70699 83.5334 4.3169V4.19053ZM84.9235 7.22346C80.5005 7.72895 80.5005 13.9212 80.7533 17.2069C81.3851 24.1573 89.3466 24.2837 90.1048 17.7124C90.863 11.141 90.3575 6.5916 84.7972 7.22346H84.9235Z" fill="#232323"/>
<path d="M38.0394 25.5474L45.6218 4.44325H49.4129L57.6271 25.5474H53.3305L51.6876 21.1244H43.7262C43.7262 21.2508 42.4625 25.5474 42.4625 25.5474H38.0394ZM50.6766 17.7123L48.0228 9.37177C47.6437 9.37177 47.6437 9.75088 47.5173 10.0036C46.5064 12.2783 46.0009 15.3113 44.8635 17.7123H50.6766Z" fill="#232323"/>
<path d="M74.1818 4.31688V7.47618H64.1984V12.9102H72.6653V16.0695H64.1984V22.3881H74.1818V25.5474H60.0281V4.31688H74.1818Z" fill="#232323"/>
<path d="M24.0121 3.05317C23.0011 2.67405 21.7374 2.67405 20.8528 3.17954C21.611 3.93777 24.3912 5.07512 24.7703 5.83335C25.5286 7.34982 24.5176 10.0036 24.5176 11.6465C21.8638 9.49815 19.3363 6.9707 16.4298 5.20149C13.5232 3.43228 6.8255 0.904842 3.41345 4.82238C4.80355 0.525725 9.35294 0.399353 13.2705 0.652097C17.188 0.904842 15.1661 1.03121 18.0726 0.399353C20.9792 -0.232507 23.2539 0.146609 24.1385 2.9268L24.0121 3.05317Z" fill="#232323"/>
<path d="M6.4463 3.55865C6.06718 4.31689 6.06718 5.58061 5.81444 6.21247C5.5617 6.84433 3.91886 7.72893 4.1716 8.86628C5.18258 7.72893 8.84737 4.06414 10.1111 3.8114C11.3748 3.55865 14.4078 5.32786 15.6715 5.95973C10.743 8.73991 1.39142 14.0475 1.51779 20.6189C1.64416 27.1902 2.27602 22.5145 2.14965 23.3991C-0.883281 20.6189 -0.251421 17.0805 1.26505 13.6684C2.78151 10.2564 2.90789 10.8882 3.03426 10.3828C3.16063 9.87726 2.78151 9.37177 2.90788 8.73991C3.16063 6.46521 4.17161 4.31689 6.57268 3.8114L6.4463 3.55865Z" fill="#232323"/>
<path d="M21.3582 21.6299C23.7592 16.4486 26.1603 11.5201 25.5284 5.58059C24.8966 -0.358897 24.012 0.65208 21.6109 0.272964C21.6109 -0.106153 21.99 0.0202196 22.2428 0.0202196C27.5504 0.525708 29.1932 8.36078 28.9405 12.7838C28.6877 17.2068 27.9295 19.2288 27.1713 20.2398C26.413 21.2507 22.4955 21.7562 21.3582 21.8826V21.6299Z" fill="#232323"/>
<path d="M10.8694 21.8826C15.5452 22.3881 21.1055 23.02 25.6549 21.6299C30.2043 20.2398 30.7098 19.4816 31.7208 16.9541L32.0999 14.8058C33.8691 23.9046 20.9792 27.443 14.0287 26.8111C13.2705 26.5584 10.743 22.1354 10.9958 21.8826H10.8694Z" fill="#232323"/>
<path d="M23.3803 26.3056C21.7375 28.7067 19.21 30.2232 16.3035 28.9594L18.5782 27.443L23.3803 26.3056Z" fill="#232323"/>
<path d="M6.95172 25.2947C4.17153 24.7892 1.77046 22.7672 2.27595 19.8607C2.78144 20.4925 4.04516 20.998 4.42428 21.5035C5.18251 22.3881 5.81437 24.5364 6.95172 25.421V25.2947Z" fill="#232323"/>
<path d="M29.6988 18.7233C30.078 17.7123 29.1934 16.7013 29.1934 15.9431C29.1934 15.1849 29.5725 11.3937 29.8252 11.3937C31.4681 13.542 31.9735 16.8277 29.6988 18.7233Z" fill="#232323"/>
</svg>
