<svg width="180" height="35" viewBox="0 0 180 35" fill="none" xmlns="http://www.w3.org/2000/svg">
<path d="M45.8848 27.6398L52.0118 11.5733H53.6457L59.7728 27.6398H58.1389L56.6412 23.5551H48.8802L47.3825 27.6398H45.8848ZM49.1525 22.4659H56.0966L52.5565 13.071L49.1525 22.4659Z" fill="#232323"/>
<path d="M59.6369 27.9123H58.003C58.003 27.9123 57.7307 27.9123 57.7307 27.7761L56.2329 23.8276H48.8804L47.3827 27.7761C47.3827 27.7761 47.3827 27.9123 47.1104 27.9123H45.6127C45.6127 27.9123 45.4765 27.9123 45.3404 27.9123C45.2042 27.9123 45.3404 27.7761 45.3404 27.64L51.4674 11.5734C51.4674 11.5734 51.4674 11.4373 51.7398 11.4373H53.3736C53.3736 11.4373 53.646 11.4373 53.646 11.5734L59.773 27.64C59.773 27.64 59.773 27.7761 59.773 27.9123H59.6369ZM58.2753 27.3677H59.2284L53.3736 11.8457H52.1482L46.2935 27.3677H47.2466L48.7443 23.4191C48.7443 23.4191 48.7443 23.2829 49.0166 23.2829H56.7776C56.7776 23.2829 57.0499 23.2829 57.0499 23.4191L58.4115 27.3677H58.2753ZM56.2329 22.7383H49.2889C49.2889 22.7383 49.1528 22.7383 49.0166 22.7383C49.0166 22.7383 49.0166 22.6022 49.0166 22.466L52.4205 13.0712C52.4205 13.0712 52.4205 12.935 52.6929 12.935C52.9652 12.935 52.9652 12.935 52.9652 13.0712L56.5053 22.466C56.5053 22.466 56.5053 22.6022 56.5053 22.7383H56.2329ZM49.6974 22.1937H55.8245L52.6929 13.8881L49.5612 22.1937H49.6974Z" fill="#232323"/>
<path d="M73.2526 26.8229C75.1588 26.8229 76.5203 26.006 76.5203 24.3721V23.1467H77.8819V24.6444C77.8819 26.6868 76.248 27.9122 73.2526 27.9122C70.2571 27.9122 68.3509 26.6868 68.3509 24.6444V18.6535C68.3509 16.6111 69.9848 15.3857 73.2526 15.3857C76.5203 15.3857 77.8819 16.6111 77.8819 18.6535V20.2874H76.5203V18.7897C76.5203 17.0196 75.2949 16.3388 73.2526 16.3388C71.2102 16.3388 69.8486 17.1558 69.8486 18.7897V24.2359C69.8486 26.006 71.2102 26.8229 73.2526 26.8229Z" fill="#232323"/>
<path d="M73.2525 28.0484C69.8485 28.0484 68.0785 26.823 68.0785 24.5083V18.5174C68.0785 16.2027 69.8485 14.9773 73.2525 14.9773C76.6564 14.9773 78.1541 16.3389 78.1541 18.5174V20.1513C78.1541 20.1513 78.1541 20.4236 77.8818 20.4236H76.5202C76.5202 20.4236 76.2479 20.4236 76.2479 20.1513V18.6536C76.2479 17.1558 75.2948 16.3389 73.2525 16.3389C71.2101 16.3389 70.1209 17.0197 70.1209 18.6536V24.0999C70.1209 25.5976 71.0739 26.4145 73.2525 26.4145C75.431 26.4145 76.2479 26.1422 76.2479 24.0999V22.8744C76.2479 22.8744 76.2479 22.6021 76.5202 22.6021H77.8818C77.8818 22.6021 78.1541 22.6021 78.1541 22.8744V24.3722C78.1541 26.6868 76.3841 27.9123 73.2525 27.9123V28.0484ZM73.2525 15.522C71.2101 15.522 68.6231 16.0666 68.6231 18.5174V24.5083C68.6231 26.9592 71.0739 27.5038 73.2525 27.5038C75.431 27.5038 77.6095 26.4145 77.6095 24.5083V23.2829H76.7926V24.236C76.7926 26.0061 75.431 27.0953 73.2525 27.0953C71.0739 27.0953 69.5762 25.5976 69.5762 24.236V18.7897C69.5762 16.8835 70.8016 15.9304 73.2525 15.9304C75.7033 15.9304 76.7926 17.4282 76.7926 18.7897V19.879H77.6095V18.5174C77.6095 16.6112 75.9756 15.522 73.2525 15.522Z" fill="#232323"/>
<path d="M81.5584 27.6398V11.5733H82.92V16.475C84.0092 15.9303 85.507 15.5219 87.1409 15.5219C89.4555 15.5219 90.5448 16.6111 90.5448 18.5173V27.776H89.0471V18.6535C89.0471 17.0196 88.2301 16.475 86.7324 16.475C85.2346 16.475 84.0092 17.0196 82.92 17.5642V27.776H81.4222L81.5584 27.6398Z" fill="#232323"/>
<path d="M90.4086 27.9121H89.047C89.047 27.9121 88.7747 27.9121 88.7747 27.6398V18.5173C88.7747 17.1557 88.0939 16.6111 86.7324 16.6111C85.3708 16.6111 83.873 17.2919 83.1923 17.5642V27.6398C83.1923 27.6398 83.1923 27.9121 82.92 27.9121H81.4222C81.4222 27.9121 81.1499 27.9121 81.1499 27.6398V11.5733C81.1499 11.5733 81.1499 11.3009 81.4222 11.3009H82.7838C82.7838 11.3009 83.0561 11.301 83.0561 11.5733V15.9303C84.0092 15.5218 85.5069 15.1133 86.8685 15.1133C89.3193 15.1133 90.5448 16.3388 90.5448 18.3811V27.6398C90.5448 27.6398 90.5448 27.9121 90.2724 27.9121H90.4086ZM89.3193 27.3675H90.1363V18.245C90.1363 17.428 89.864 16.7472 89.3193 16.2026C88.7747 15.658 87.9578 15.3857 86.8685 15.3857C85.7792 15.3857 83.873 15.9303 82.7838 16.3388C82.7838 16.3388 82.6476 16.3388 82.5115 16.3388C82.5115 16.3388 82.5115 16.3388 82.5115 16.0664V11.5733H81.6945V27.0952H82.5115V17.1557C82.5115 17.1557 82.5115 17.0195 82.6476 16.8834C83.3284 16.6111 85.0985 15.7941 86.5962 15.7941C88.0939 15.7941 89.1832 16.6111 89.1832 18.245V27.0952L89.3193 27.3675Z" fill="#232323"/>
<path d="M98.85 26.823C101.029 26.823 102.254 26.0061 102.254 24.0999V23.5552H103.616V24.3722C103.616 26.5507 101.846 27.9123 98.7139 27.9123C95.5823 27.9123 94.0845 26.6869 94.0845 24.3722V18.7897C94.0845 16.6112 95.7184 15.2497 98.7139 15.2497C101.709 15.2497 103.616 16.4751 103.616 18.7897V22.0575H95.4461V24.0999C95.4461 26.0061 96.3992 26.823 98.7139 26.823H98.85ZM95.5823 21.1044H102.254V19.0621C102.254 17.1559 100.892 16.3389 98.85 16.3389C96.8077 16.3389 95.5823 17.1559 95.5823 19.0621V21.1044Z" fill="#232323"/>
<path d="M98.8504 28.0483C97.3527 28.0483 96.1272 27.776 95.3103 27.0952C94.4934 26.4144 93.9487 25.4613 93.9487 24.2359V18.6535C93.9487 17.428 94.3572 16.4749 95.3103 15.7942C96.1272 15.1134 97.3527 14.8411 98.8504 14.8411C102.118 14.8411 104.024 16.2026 104.024 18.6535V21.9212C104.024 21.9212 104.024 22.1935 103.752 22.1935H95.8549V23.9636C95.8549 25.7336 96.6719 26.4144 98.8504 26.4144C101.029 26.4144 102.118 25.5975 102.118 23.9636V23.419C102.118 23.419 102.118 23.1466 102.39 23.1466H103.752C103.752 23.1466 104.024 23.1466 104.024 23.419V24.2359C104.024 26.6867 102.118 28.0483 98.9865 28.0483H98.8504ZM98.8504 15.5219C97.4888 15.5219 96.3996 15.7942 95.5826 16.3388C94.7657 16.8834 94.4934 17.7004 94.4934 18.6535V24.2359C94.4934 25.189 94.9018 26.0059 95.5826 26.5506C96.3996 27.0952 97.4888 27.3675 98.8504 27.3675C101.846 27.3675 103.48 26.1421 103.48 24.0997V23.5551H102.663V23.8274C102.663 25.7336 101.301 26.8229 98.8504 26.8229C96.3996 26.8229 95.3103 25.8698 95.3103 23.8274V21.7851C95.3103 21.7851 95.3103 21.5128 95.5826 21.5128H103.48V18.5173C103.48 16.4749 101.846 15.2495 98.9865 15.2495L98.8504 15.5219ZM102.39 21.3766H95.7188C95.7188 21.3766 95.4465 21.3766 95.4465 21.1043V19.0619C95.4465 17.0196 96.5357 16.0665 98.9865 16.0665C101.437 16.0665 102.799 17.1557 102.799 19.0619V21.1043C102.799 21.1043 102.663 21.3766 102.527 21.3766H102.39ZM95.9911 20.832H102.118V19.0619C102.118 17.4281 101.029 16.6111 98.8504 16.6111C96.6719 16.6111 95.8549 17.2919 95.8549 19.0619V20.832H95.9911Z" fill="#232323"/>
<path d="M108.517 16.2026C109.334 15.7941 110.832 15.2495 112.194 15.2495C113.555 15.2495 114.644 15.658 115.189 16.4749C116.415 15.7941 117.912 15.2495 119.41 15.2495C121.725 15.2495 122.95 16.4749 122.95 18.5173V27.6398H121.589V18.6534C121.589 17.1557 120.908 16.2026 119.274 16.2026C117.64 16.2026 116.823 16.6111 115.734 17.2919C115.734 17.5642 115.734 17.9727 115.734 18.3811V27.5037H114.372V18.5173C114.372 17.0196 113.691 16.0665 112.057 16.0665C110.424 16.0665 109.607 16.4749 108.654 17.0196V27.3675H107.292V15.1134H108.381V15.9303L108.517 16.2026Z" fill="#232323"/>
<path d="M123.086 27.9122H121.725C121.725 27.9122 121.452 27.9122 121.452 27.6399V18.6535C121.452 17.1558 120.772 16.475 119.41 16.475C118.048 16.475 117.368 16.7473 116.142 17.4281C116.142 17.7004 116.142 18.1089 116.142 18.3812V27.5037C116.142 27.5037 116.142 27.7761 115.87 27.7761H114.508C114.508 27.7761 114.236 27.7761 114.236 27.5037V18.5174C114.236 17.0196 113.555 16.3389 112.194 16.3389C110.832 16.3389 109.743 16.7473 109.062 17.1558V27.3676C109.062 27.3676 109.062 27.6399 108.79 27.6399H107.428C107.428 27.6399 107.156 27.6399 107.156 27.3676V15.1134C107.156 15.1134 107.156 14.8411 107.428 14.8411H108.517C108.517 14.8411 108.79 14.8411 108.79 14.9773V15.5219C109.879 15.1134 111.104 14.705 112.33 14.705C113.555 14.705 114.781 15.1134 115.461 15.7942C116.959 14.9773 118.321 14.705 119.682 14.705C122.133 14.705 123.495 16.0665 123.495 18.1089V27.2314C123.359 27.3676 123.222 27.5037 122.95 27.5037L123.086 27.9122ZM121.997 27.3676H122.814V18.5174C122.814 16.6112 121.725 15.6581 119.546 15.6581C117.368 15.6581 116.823 16.0665 115.325 16.8835C115.325 16.8835 115.053 16.8835 114.917 16.8835C114.372 16.2027 113.419 15.7942 112.057 15.7942C110.696 15.7942 109.47 16.3389 108.517 16.7473C108.517 16.7473 108.381 16.7473 108.245 16.7473C108.245 16.7473 108.245 16.7473 108.245 16.6112V15.9304H107.564V27.6399H108.381V17.5643C108.381 17.5643 108.381 17.4281 108.381 17.292C109.198 16.8835 110.287 16.3389 111.921 16.3389C113.555 16.3389 114.508 17.292 114.508 19.062V27.6399H115.325V18.7897C115.325 18.5174 115.325 18.1089 115.325 17.8366V17.5643C116.687 16.7473 117.912 16.3389 119.002 16.3389C120.635 16.3389 121.589 17.292 121.589 19.062V27.5037L121.997 27.3676Z" fill="#232323"/>
<path d="M136.293 15.5219L131.256 28.8653C130.303 31.5884 128.669 31.7246 127.035 31.7246C125.401 31.7246 126.218 31.7246 125.809 31.7246V30.7715C126.082 30.7715 126.49 30.7715 126.899 30.7715C127.852 30.7715 129.077 30.4991 129.758 28.5929L130.03 27.6398L125.265 15.5219H126.762L130.711 26.006L134.387 15.5219H136.021H136.293Z" fill="#232323"/>
<path d="M127.171 32.133C126.626 32.133 126.218 32.133 125.946 32.133C125.946 32.133 125.809 32.133 125.809 31.8607V30.9076C125.809 30.9076 125.809 30.7715 125.809 30.6353C125.809 30.4992 125.946 30.6353 126.082 30.6353C126.354 30.6353 126.899 30.6353 127.171 30.6353C128.124 30.6353 129.213 30.363 129.758 28.593L130.03 27.6399L125.401 15.658C125.401 15.658 125.401 15.5219 125.401 15.3857C125.401 15.3857 125.401 15.3857 125.673 15.3857H127.171C127.171 15.3857 127.443 15.3857 127.443 15.5219L131.12 25.3252L134.524 15.5219C134.524 15.5219 134.524 15.3857 134.796 15.3857H136.43C136.43 15.3857 136.566 15.3857 136.702 15.3857C136.702 15.3857 136.702 15.5219 136.702 15.658L131.664 29.1376C130.575 31.9969 128.805 32.2692 127.307 32.2692L127.171 32.133ZM126.218 31.4523C126.49 31.4523 126.763 31.4523 127.171 31.4523C128.669 31.4523 130.03 31.3161 130.983 28.7291L135.885 15.658H134.932L131.392 25.8698C131.392 25.8698 131.392 26.006 131.12 26.006C130.847 26.006 130.847 26.006 130.847 25.8698L127.035 15.658H126.082L130.711 27.3676C130.711 27.5037 130.439 28.593 130.439 28.593C129.622 30.7715 128.396 31.0438 127.307 31.0438C126.218 31.0438 126.626 31.0438 126.49 31.0438V31.4523H126.218Z" fill="#232323"/>
<path d="M63.177 27.6398V11.5733H64.5386V27.6398H63.177Z" fill="#232323"/>
<path d="M64.5382 27.9121H63.1766C63.1766 27.9121 62.9043 27.9121 62.9043 27.6398V11.5733C62.9043 11.5733 62.9043 11.3009 63.1766 11.3009H64.5382C64.5382 11.3009 64.8105 11.301 64.8105 11.5733V27.6398C64.8105 27.6398 64.8105 27.9121 64.5382 27.9121ZM63.4489 27.3675H64.2659V11.7094H63.4489V27.3675Z" fill="#232323"/>
<path d="M144.599 27.6398V11.5733H148.548C152.905 11.5733 154.675 13.2072 154.675 15.9303V16.8834C154.675 19.4704 153.041 21.1043 148.548 21.1043H146.097V27.6398H144.463H144.599ZM146.233 12.5264V20.015H148.684C151.815 20.015 153.177 19.1981 153.177 16.8834V15.9303C153.177 13.6157 151.815 12.5264 148.82 12.5264H146.233Z" fill="#232323"/>
<path d="M146.233 28.1846H144.599C144.327 28.1846 143.918 27.9123 143.918 27.5039V11.4373C143.918 11.165 144.191 10.7565 144.599 10.7565H148.548C150.862 10.7565 152.496 11.165 153.586 12.1181C154.675 12.935 155.219 14.1605 155.219 15.7943V16.7474C155.219 18.3813 154.675 19.4706 153.586 20.2875C152.496 21.1045 150.862 21.5129 148.548 21.5129H146.778V27.3677C146.778 27.7762 146.505 28.0485 146.097 28.0485L146.233 28.1846ZM145.28 26.9592H145.552V21.1045C145.552 20.8322 145.552 20.696 145.825 20.5598C145.688 20.5598 145.552 20.2875 145.552 20.0152V12.6627C145.552 12.5266 145.552 12.3904 145.688 12.2543H145.144V27.0954L145.28 26.9592ZM152.224 12.6627C152.224 12.6627 152.36 12.6627 152.496 12.7989C153.313 13.4797 153.858 14.4328 153.858 15.9305V16.8836C153.858 18.2452 153.449 19.1983 152.496 19.7429C152.632 19.7429 152.905 19.6067 153.041 19.4706C153.858 18.926 154.13 18.109 154.13 17.0198V15.9305C154.13 14.8412 153.858 13.4797 152.224 12.7989V12.6627ZM146.914 19.3344H148.684C151.952 19.3344 152.632 18.3813 152.632 16.8836V15.9305C152.632 14.4328 152.224 13.2074 148.82 13.2074H146.914V19.4706V19.3344Z" fill="#232323"/>
<path d="M156.989 24.0997C156.989 22.0574 158.487 20.9681 161.483 20.9681H164.887V18.3811C164.887 16.8834 164.07 16.2026 162.027 16.2026C159.985 16.2026 159.304 16.8834 159.304 18.3811V18.9258H157.943V18.245C157.943 16.0665 159.304 15.1134 162.163 15.1134C165.023 15.1134 166.384 16.2026 166.384 18.245V27.5037H165.295L165.023 26.6867C163.797 27.3675 162.163 27.6398 160.802 27.6398C158.351 27.6398 157.126 26.6867 157.126 24.6444V23.9636L156.989 24.0997ZM164.75 25.8698V21.9212H161.483C159.304 21.9212 158.351 22.602 158.351 23.9636V24.6444C158.351 26.0059 159.168 26.6867 160.802 26.6867C162.436 26.6867 163.525 26.4144 164.614 25.8698H164.75Z" fill="#232323"/>
<path d="M160.53 28.3207C159.168 28.3207 158.079 28.0484 157.398 27.5037C156.581 26.823 156.309 26.006 156.309 24.7806V24.0998C156.309 22.4659 157.126 20.4236 161.346 20.4236H164.07V18.5174C164.07 17.7004 163.933 17.0196 161.755 17.0196C159.576 17.0196 159.576 17.7004 159.576 18.5174V19.062C159.576 19.3343 159.304 19.7428 158.896 19.7428H157.534C157.262 19.7428 156.853 19.4705 156.853 19.062V18.3812C156.853 17.1558 157.262 16.2027 158.215 15.5219C159.032 14.9773 160.121 14.705 161.755 14.705C163.389 14.705 164.614 14.9773 165.431 15.5219C166.248 16.2027 166.657 17.0196 166.657 18.2451V27.5037C166.657 27.7761 166.384 28.1845 165.976 28.1845H164.887C164.614 28.1845 164.342 28.0484 164.206 27.7761C162.98 28.0484 161.619 28.3207 160.257 28.3207H160.53ZM165.295 26.2783C165.295 26.2783 165.567 26.4145 165.567 26.6868V26.9591V18.3812C165.567 17.5643 165.567 16.8835 164.614 16.475C165.159 16.8835 165.431 17.5643 165.431 18.5174V21.1044C165.431 21.2405 165.431 21.5128 165.159 21.649C165.159 21.649 165.431 21.9213 165.431 22.1936V26.1422C165.431 26.1422 165.431 26.4145 165.431 26.5506L165.295 26.2783ZM158.215 22.4659C157.67 23.0106 157.534 23.5552 157.534 24.0998V24.7806C157.534 25.5975 157.806 26.1422 158.215 26.4145C158.215 26.4145 158.215 26.4145 158.351 26.4145C157.806 25.8699 157.67 25.1891 157.67 24.6444V23.8275C157.67 23.1467 157.806 22.6021 158.079 22.1936L158.215 22.4659ZM161.483 22.6021C159.168 22.6021 159.032 23.2829 159.032 24.0998V24.7806C159.032 25.4614 159.032 26.1422 160.938 26.1422C162.844 26.1422 163.253 25.8699 164.206 25.4614V22.6021H161.483ZM158.351 18.3812C158.351 17.5643 158.487 17.0196 158.896 16.7473C158.487 17.0196 158.215 17.5643 158.215 18.3812H158.351Z" fill="#232323"/>
<path d="M179.319 15.5219L174.281 28.8653C173.328 31.5884 171.694 31.7246 170.06 31.7246C168.427 31.7246 169.243 31.7246 168.835 31.7246V30.7715C169.107 30.7715 169.516 30.7715 169.924 30.7715C170.877 30.7715 172.103 30.4991 172.784 28.5929L173.056 27.6398L168.29 15.5219H169.788L173.737 26.006L177.413 15.5219H179.047H179.319Z" fill="#232323"/>
<path d="M170.197 32.4054C169.516 32.4054 169.244 32.4054 168.835 32.4054C168.563 32.4054 168.427 32.1331 168.427 31.7247V30.7716C168.427 30.6354 168.427 30.3631 168.699 30.2269C168.699 30.2269 169.107 30.2269 169.244 30.2269C169.516 30.2269 169.924 30.2269 170.197 30.2269C171.014 30.2269 171.967 30.2269 172.511 28.4569L172.784 27.6399L168.154 15.7943C168.154 15.6581 168.154 15.3858 168.154 15.2496C168.154 15.1135 168.427 14.9773 168.699 14.9773H170.197C170.469 14.9773 170.741 15.1135 170.741 15.3858L174.145 24.236L177.277 15.3858C177.277 15.1135 177.549 14.9773 177.821 14.9773H179.455C179.592 14.9773 179.864 14.9773 180 15.2496C180 15.3858 180 15.6581 180 15.7943L174.962 29.1377C173.873 32.1331 172.103 32.5416 170.197 32.5416V32.4054ZM169.516 16.2027L173.873 27.5038C173.873 27.5038 173.873 27.7761 173.873 27.9123L173.601 28.8654C173.601 29.2738 173.328 29.6823 173.056 29.9546C173.192 29.6823 173.464 29.2738 173.601 28.7292L174.418 26.2784C174.418 26.4145 174.145 26.5507 173.873 26.5507C173.601 26.5507 173.328 26.4145 173.328 26.1422L169.516 16.0666V16.2027ZM178.23 16.2027L174.826 26.0061L178.366 16.2027H178.23Z" fill="#232323"/>
<path d="M10.0756 17.2919V34.8562H0L10.0756 17.2919Z" fill="#232323"/>
<path d="M29.9545 17.2919V34.8562H40.0301L29.9545 17.2919Z" fill="#232323"/>
<path d="M20.6958 21.2405C22.602 21.2405 24.5082 21.2405 25.7336 21.9213V10.0756L19.8788 0L14.1602 10.0756V23.8275C15.2495 22.8744 17.8365 21.5128 20.6958 21.3767V21.2405Z" fill="#232323"/>
<path d="M25.8695 26.4145C24.644 25.5976 23.2825 25.1891 21.6486 25.1891C18.7893 25.1891 16.6108 26.9592 15.2492 29.1377C14.7046 30.0908 14.4323 31.5885 14.4323 32.6778C14.4323 33.767 14.4322 34.3117 14.8407 34.9924H26.0056V26.5507L25.8695 26.4145Z" fill="#232323"/>
</svg>
