<svg width="93" height="47" viewBox="0 0 93 47" fill="none" xmlns="http://www.w3.org/2000/svg">
<path d="M0 46.0693H15.4019L18.5368 37.6188L11.4492 23.171L0 46.0693Z" fill="#232323"/>
<path d="M40.7536 34.6201L23.7161 0.272598L18.5367 11.9944L34.7564 46.0693H46.3419L40.7536 34.6201Z" fill="#232323"/>
<path fill-rule="evenodd" clip-rule="evenodd" d="M69.3766 46.0693C82.0525 46.0693 92.4113 35.7105 92.4113 23.0347C92.4113 10.3588 82.0525 0 69.3766 0C56.7007 0 46.3419 10.3588 46.3419 23.0347C46.3419 35.7105 56.7007 46.0693 69.3766 46.0693ZM69.3766 37.0735C77.1457 37.0735 83.4155 30.8037 83.4155 23.0347C83.4155 15.2656 77.1457 8.99578 69.3766 8.99578C61.6075 8.99578 55.3377 15.2656 55.3377 23.0347C55.3377 30.8037 61.6075 37.0735 69.3766 37.0735Z" fill="#232323"/>
</svg>
