<svg width="3000" height="1497" viewBox="0 0 3000 1497" fill="none" xmlns="http://www.w3.org/2000/svg">
<path d="M0 1496.5H499.1L601 1221L371.8 751.7L0 1496.5Z" fill="#E6E7E8"/>
<path d="M1324.2 1124.1L769.1 7L601 389.6L1125.6 1496.5H1503.5L1324.2 1124.1Z" fill="#E6E7E8"/>
<path fill-rule="evenodd" clip-rule="evenodd" d="M2251.8 1496.5C2665 1496.5 3000 1161.5 3000 748.3C3000 335.1 2665 0 2251.8 0C1838.6 0 1503.6 335 1503.6 748.3C1503.6 1161.6 1838.6 1496.5 2251.8 1496.5ZM2251.8 1202.8C2502.8 1202.8 2706.3 999.3 2706.3 748.3C2706.3 497.3 2502.8 293.8 2251.8 293.8C2000.8 293.8 1797.2 497.3 1797.2 748.3C1797.2 999.3 2000.7 1202.8 2251.8 1202.8Z" fill="#E6E7E8"/>
</svg>
