<?xml version="1.0" encoding="UTF-8"?>
<svg id="Layer_1" xmlns="http://www.w3.org/2000/svg" version="1.1" viewBox="0 0 3000 3000">
  <!-- Generator: Adobe Illustrator 29.4.0, SVG Export Plug-In . SVG Version: 2.1.0 Build 152)  -->
  <defs>
    <style>
      .st0, .st1 {
        fill: #232323;
      }

      .st1 {
        fill-rule: evenodd;
      }
    </style>
  </defs>
  <path class="st1" d="M90.2,1500c0,778.6,631.2,1409.8,1409.8,1409.8s1409.8-631.2,1409.8-1409.8S2278.6,90.2,1500,90.2,90.2,721.4,90.2,1500ZM1500,0C671.6,0,0,671.6,0,1500s671.6,1500,1500,1500,1500-671.6,1500-1500S2328.4,0,1500,0Z"/>
  <path class="st0" d="M528.3,1962.1h322l65.7-177.7-147.9-302.8-239.9,480.4Z"/>
  <path class="st0" d="M1382.6,1721.9l-358.1-720.7-108.4,246.8,338.4,714.1h243.8l-115.6-240.2Z"/>
  <path class="st1" d="M1980.9,1962.1c266.6,0,482.7-216.1,482.7-482.7s-216.1-482.7-482.7-482.7-482.7,216.1-482.7,482.7,216.1,482.7,482.7,482.7ZM1980.9,1772.6c161.9,0,293.2-131.3,293.2-293.2s-131.3-293.2-293.2-293.2-293.2,131.3-293.2,293.2,131.3,293.2,293.2,293.2Z"/>
</svg>