<svg width="3000" height="1497" viewBox="0 0 3000 1497" fill="none" xmlns="http://www.w3.org/2000/svg">
<path d="M0 1496.5H499.134L600.999 1221.04L371.804 751.745L0 1496.5Z" fill="#232323"/>
<path d="M1324.23 1124.12L769.074 6.98999L600.999 389.569L1125.6 1496.5H1503.5L1324.23 1124.12Z" fill="#232323"/>
<path fill-rule="evenodd" clip-rule="evenodd" d="M2251.75 1496.5C2665 1496.5 3000 1161.5 3000 748.251C3000 335.003 2665 0 2251.75 0C1838.5 0 1503.5 335.003 1503.5 748.251C1503.5 1161.5 1838.5 1496.5 2251.75 1496.5ZM2251.75 1202.8C2502.79 1202.8 2706.29 999.289 2706.29 748.251C2706.29 497.213 2502.79 293.706 2251.75 293.706C2000.71 293.706 1797.2 497.213 1797.2 748.251C1797.2 999.289 2000.71 1202.8 2251.75 1202.8Z" fill="#232323"/>
</svg>
