<svg width="2228" height="2226" viewBox="0 0 2228 2226" fill="none" xmlns="http://www.w3.org/2000/svg">
<path d="M1286.28 1505.25C1281.25 1495.2 1276.23 1483.47 1272.88 1470.07C1269.53 1456.67 1266.18 1443.27 1264.51 1428.19C1252.78 1441.6 1239.39 1453.32 1224.31 1465.05C1209.24 1476.77 1192.49 1486.82 1174.07 1495.2C1155.65 1503.57 1135.55 1510.27 1112.1 1515.3C1090.33 1520.32 1065.21 1522 1038.41 1522C996.542 1522 956.347 1515.3 921.177 1503.57C886.007 1491.85 855.861 1473.42 829.064 1451.65C803.942 1429.87 783.845 1403.07 768.772 1372.92C753.699 1342.76 747 1309.26 747 1274.09C747 1186.98 778.821 1118.3 844.137 1071.4C909.454 1022.82 1006.59 999.37 1135.55 999.37H1254.46V950.792C1254.46 910.59 1241.06 878.763 1215.94 855.311C1189.14 831.86 1152.3 820.134 1103.73 820.134C1055.16 820.134 1028.36 830.185 1008.27 848.611C988.168 867.037 978.12 892.163 978.12 923.99H765.423C765.423 888.813 773.796 855.311 788.869 823.484C803.942 791.658 827.389 763.181 857.535 739.73C887.681 716.278 924.526 696.177 968.071 682.776C1011.61 669.376 1060.18 661 1117.13 661C1174.07 661 1214.26 667.7 1257.81 679.426C1301.35 691.152 1338.2 709.578 1370.02 734.704C1401.84 758.156 1426.96 788.307 1443.71 825.16C1462.13 862.012 1470.5 903.889 1470.5 952.467V1309.26C1470.5 1354.49 1473.85 1391.34 1478.88 1419.82C1483.9 1448.3 1492.28 1473.42 1504 1495.2V1508.6H1286.28V1505.25ZM1083.63 1356.17C1105.4 1356.17 1125.5 1352.82 1143.92 1347.79C1162.35 1342.76 1179.09 1336.06 1194.17 1327.69C1209.24 1319.31 1220.96 1310.94 1232.69 1299.21C1242.73 1289.16 1251.11 1277.44 1257.81 1267.39V1125H1148.95C1115.45 1125 1086.98 1128.35 1063.53 1135.05C1040.09 1141.75 1019.99 1150.13 1006.59 1161.85C991.518 1173.58 981.469 1186.98 973.095 1203.73C966.396 1220.48 963.046 1237.23 963.046 1255.66C963.046 1284.14 973.095 1307.59 993.192 1327.69C1011.61 1346.11 1041.76 1356.17 1083.63 1356.17Z" fill="#E6E7E8"/>
<path d="M1114 2226C499.206 2226 0 1727.24 0 1113C0 498.758 499.206 0 1114 0C1728.79 0 2228 498.758 2228 1113C2228 1727.24 1728.79 2226 1114 2226ZM1114 160.674C587.991 160.674 160.818 587.463 160.818 1113C160.818 1638.54 587.991 2065.33 1114 2065.33C1640.01 2065.33 2067.18 1638.54 2067.18 1113C2067.18 587.463 1640.01 160.674 1114 160.674Z" fill="#E6E7E8"/>
</svg>
