<svg width="200" height="31" viewBox="0 0 200 31" fill="none" xmlns="http://www.w3.org/2000/svg">
<path d="M50.2022 20.8596C50.1327 20.6974 50.0632 20.5351 50.0168 20.3729C49.9705 20.1875 49.9241 20.0021 49.8777 19.7935C49.7155 19.9789 49.5069 20.1411 49.3215 20.3034C49.1129 20.4656 48.8811 20.6047 48.6262 20.7206C48.348 20.8365 48.0699 20.9292 47.7686 20.9987C47.4441 21.0682 47.0965 21.0914 46.7488 21.0914C46.1925 21.0914 45.6595 21.0219 45.1264 20.8365C44.6628 20.6742 44.2225 20.4424 43.8516 20.118C43.504 19.8167 43.2258 19.4458 43.0172 19.0286C42.8087 18.5882 42.7159 18.1247 42.7159 17.6612C42.7159 16.4559 43.1563 15.5057 44.0602 14.8567C44.9641 14.1845 46.3084 13.8601 48.0931 13.8601H49.7387V13.1879C49.7619 12.7012 49.5533 12.2145 49.2056 11.8668C48.8348 11.5423 48.3249 11.3801 47.6527 11.3801C47.0501 11.3801 46.6097 11.496 46.3316 11.7741C46.0535 12.0522 45.8912 12.4231 45.9144 12.8171H42.9709C42.9709 12.3304 43.0868 11.8668 43.2954 11.4264C43.5272 10.9861 43.8516 10.5689 44.2456 10.2676C44.7092 9.91991 45.2191 9.64179 45.7754 9.47954C46.4475 9.27095 47.1428 9.17824 47.8381 9.17824C48.4871 9.17824 49.1361 9.24777 49.785 9.43319C50.3413 9.59543 50.8744 9.85038 51.3379 10.198C51.7783 10.5225 52.126 10.9629 52.3577 11.4496C52.6127 12.0059 52.7517 12.6085 52.7286 13.2111V18.1479C52.7286 18.6578 52.7517 19.1677 52.8445 19.6776C52.914 20.0484 53.0299 20.3961 53.1921 20.7206V20.8596H50.2022ZM47.3978 18.7968C47.6759 18.7968 47.954 18.7737 48.2322 18.7041C48.4639 18.6346 48.7189 18.5419 48.9275 18.426C49.1129 18.3333 49.2983 18.1942 49.4606 18.032C49.5996 17.8929 49.7155 17.7539 49.8082 17.5916V15.6215H48.3017C47.9077 15.6215 47.5137 15.6679 47.1196 15.7606C46.8415 15.8301 46.5634 15.946 46.3316 16.1314C46.123 16.2705 45.9608 16.4791 45.8681 16.7109C45.7754 16.9427 45.7058 17.1976 45.729 17.4294C45.729 17.8002 45.8681 18.1711 46.1462 18.426C46.4011 18.6578 46.8183 18.7968 47.3978 18.7968Z" fill="#232323"/>
<path d="M65.9628 9.15506C66.38 9.15506 66.7972 9.17824 67.1912 9.24777C67.5157 9.29412 67.817 9.36366 68.1183 9.43319L67.6779 12.3999C67.2839 12.3072 66.8899 12.2376 66.4959 12.1913C66.1019 12.1449 65.731 12.1218 65.337 12.1218C64.6417 12.0754 63.9464 12.2376 63.3438 12.5853C62.8339 12.9098 62.4398 13.3965 62.2312 13.9528V20.8596H59.2877V9.38683H62.0458L62.1849 11.2642C62.6253 10.6384 63.2047 10.1053 63.8537 9.73449C64.4794 9.34048 65.1979 9.15506 65.9628 9.15506Z" fill="#232323"/>
<path d="M79.7302 17.2671L80.7268 9.38684H83.4386L81.3758 20.8828H78.8031L77.2966 13.5588L75.8364 20.8596H73.2405L71.1777 9.38684H73.8663L74.8629 17.3135L76.2999 9.38684H78.27L79.7302 17.2671Z" fill="#232323"/>
<path d="M92.64 21.0682C91.8056 21.0682 90.9944 20.9292 90.2295 20.6279C89.5342 20.3497 88.9084 19.9557 88.3754 19.4458C87.8655 18.9359 87.4483 18.3565 87.1933 17.6843C86.9152 16.989 86.7761 16.2473 86.7761 15.5057V15.0885C86.7761 14.2773 86.9152 13.4429 87.1933 12.678C87.4483 11.9827 87.8423 11.3337 88.3522 10.8007C88.8389 10.2676 89.4415 9.85038 90.1137 9.57225C91.5275 8.99282 93.1267 8.99282 94.5405 9.54908C95.1663 9.80403 95.7226 10.198 96.1861 10.7079C96.6497 11.2178 96.9973 11.8436 97.2059 12.4926C97.4377 13.2343 97.5768 14.0223 97.5536 14.8103V16.0619H89.7428C89.7892 16.4328 89.9051 16.8036 90.0905 17.1281C90.4382 17.777 90.9944 18.2638 91.6897 18.4955C92.0606 18.6346 92.4314 18.681 92.8254 18.681C93.1267 18.681 93.4049 18.6578 93.683 18.5882C93.9611 18.5419 94.2392 18.4492 94.4942 18.3333C94.7491 18.2174 95.0041 18.0783 95.2359 17.9161C95.4676 17.7539 95.6531 17.5684 95.8385 17.3367L97.3218 18.9359C97.1132 19.214 96.8815 19.469 96.6033 19.7008C96.2788 19.9789 95.9312 20.1875 95.5603 20.3729C95.1432 20.5815 94.6796 20.7206 94.2161 20.8365C93.7062 20.9987 93.1731 21.0682 92.64 21.0682ZM92.2923 11.5423C91.9679 11.5423 91.6665 11.5887 91.3884 11.7277C91.1103 11.8436 90.8553 12.0059 90.6699 12.2376C90.4613 12.4694 90.2759 12.7244 90.1368 13.0257C89.9978 13.3502 89.8819 13.6978 89.8124 14.0455H94.6564V13.8137C94.6333 13.5124 94.5869 13.2111 94.471 12.933C94.3783 12.6548 94.2161 12.4231 94.0075 12.2145C93.7989 12.0059 93.5439 11.8436 93.289 11.7277C92.9645 11.6119 92.64 11.5423 92.2923 11.5423Z" fill="#232323"/>
<path d="M108.934 20.8596C108.864 20.6974 108.795 20.5351 108.748 20.3729C108.702 20.1875 108.656 19.9789 108.632 19.7935C108.447 19.9789 108.262 20.1411 108.053 20.3034C107.844 20.4656 107.613 20.6047 107.358 20.7206C107.079 20.8365 106.801 20.9292 106.5 20.9987C106.176 21.0682 105.828 21.0914 105.48 21.0914C104.924 21.0914 104.391 21.0219 103.858 20.8365C103.394 20.6742 102.954 20.4424 102.583 20.118C101.865 19.5153 101.447 18.6114 101.447 17.6612C101.447 16.4559 101.888 15.5057 102.792 14.8567C103.696 14.1845 105.04 13.8601 106.825 13.8601H108.47V13.1879C108.493 12.7012 108.285 12.2145 107.937 11.8668C107.566 11.5423 107.056 11.3801 106.384 11.3801C105.782 11.3801 105.341 11.496 105.063 11.7741C104.785 12.0522 104.623 12.4231 104.646 12.8171H101.702C101.702 12.3304 101.818 11.8668 102.027 11.4264C102.259 10.9861 102.583 10.5689 102.977 10.2676C103.441 9.91991 103.951 9.64179 104.507 9.47954C105.179 9.27095 105.874 9.17824 106.57 9.17824C107.219 9.17824 107.868 9.24777 108.516 9.43319C109.073 9.59543 109.606 9.85038 110.069 10.198C110.51 10.5225 110.857 10.9629 111.089 11.4496C111.344 12.0059 111.483 12.6085 111.46 13.2111V18.1479C111.46 18.6578 111.483 19.1677 111.576 19.6776C111.645 20.0484 111.761 20.3961 111.924 20.7206V20.8596H108.934ZM106.129 18.7968C106.407 18.7968 106.685 18.7737 106.964 18.7041C107.195 18.6346 107.427 18.5419 107.659 18.426C107.844 18.3333 108.03 18.1942 108.192 18.032C108.331 17.8929 108.447 17.7539 108.54 17.5916V15.6215H107.033C106.639 15.6215 106.245 15.6679 105.851 15.7606C105.573 15.8301 105.295 15.946 105.063 16.1314C104.854 16.2705 104.692 16.4791 104.6 16.7109C104.507 16.9427 104.437 17.1976 104.46 17.4294C104.46 17.8002 104.6 18.1711 104.878 18.426C105.133 18.6578 105.55 18.7968 106.129 18.7968Z" fill="#232323"/>
<path d="M121.334 17.4526L121.473 18.287L121.612 17.4989L124.138 9.38684H127.221L122.863 20.8596H120.082L115.702 9.38684H118.784L121.334 17.4526Z" fill="#232323"/>
<path d="M136.7 21.0682C135.866 21.0682 135.055 20.9292 134.29 20.6279C133.594 20.3497 132.969 19.9557 132.436 19.4458C131.926 18.9359 131.508 18.3565 131.23 17.6843C130.952 16.989 130.813 16.2473 130.813 15.5057V15.0885C130.813 14.2773 130.952 13.4429 131.23 12.678C131.485 11.9827 131.879 11.3337 132.389 10.8007C132.876 10.2676 133.478 9.85038 134.151 9.57225C135.564 8.99282 137.164 8.99282 138.578 9.54908C139.203 9.80403 139.76 10.198 140.223 10.7079C140.687 11.2178 141.034 11.8436 141.243 12.4926C141.475 13.2343 141.591 14.0223 141.591 14.8103V16.0619H133.803C133.849 16.4328 133.965 16.8036 134.151 17.1281C134.498 17.777 135.055 18.2638 135.727 18.4955C136.098 18.6346 136.468 18.681 136.862 18.681C137.164 18.681 137.442 18.6578 137.72 18.5882C137.998 18.5419 138.276 18.4492 138.531 18.3333C138.786 18.2174 139.041 18.0783 139.273 17.9161C139.505 17.7539 139.69 17.5684 139.875 17.3367L141.359 18.9359C141.15 19.214 140.918 19.469 140.64 19.7008C140.316 19.9789 139.968 20.1875 139.597 20.3729C139.18 20.5815 138.717 20.7206 138.253 20.8365C137.766 20.9987 137.233 21.0682 136.7 21.0682ZM136.352 11.5423C136.028 11.5423 135.727 11.5887 135.449 11.7277C135.17 11.8436 134.915 12.0059 134.73 12.2376C134.521 12.4694 134.336 12.7244 134.197 13.0257C134.058 13.3502 133.942 13.6978 133.873 14.0455H138.717V13.8137C138.693 13.5124 138.647 13.2111 138.531 12.933C138.438 12.6548 138.276 12.4231 138.068 12.2145C137.859 12.0059 137.604 11.8436 137.349 11.7277C137.025 11.6119 136.677 11.5423 136.352 11.5423Z" fill="#232323"/>
<path d="M148.799 19.1445C148.799 18.8896 148.845 18.6114 148.938 18.3797C149.03 18.1479 149.17 17.9393 149.332 17.7539C149.517 17.5684 149.726 17.4294 149.981 17.3367C150.537 17.1281 151.14 17.1281 151.696 17.3367C151.928 17.4294 152.159 17.5684 152.345 17.7539C152.53 17.9393 152.646 18.1479 152.739 18.3797C152.832 18.6346 152.878 18.8896 152.878 19.1445C152.878 19.3995 152.832 19.6544 152.739 19.8862C152.646 20.118 152.507 20.3265 152.345 20.4888C152.159 20.6742 151.951 20.8133 151.696 20.906C151.14 21.1146 150.537 21.1146 149.981 20.906C149.749 20.8133 149.517 20.6742 149.332 20.4888C149.146 20.3265 149.007 20.118 148.938 19.8862C148.845 19.6544 148.799 19.3995 148.799 19.1445Z" fill="#232323"/>
<path d="M160.086 15.0189C160.086 14.2309 160.202 13.4429 160.457 12.7012C160.689 12.0291 161.036 11.3801 161.523 10.847C161.987 10.3139 162.566 9.89674 163.215 9.61862C164.698 9.016 166.344 9.016 167.827 9.61862C168.476 9.89674 169.056 10.3139 169.543 10.847C170.006 11.3801 170.377 12.0291 170.609 12.7012C170.864 13.4429 170.98 14.2309 170.98 15.0189V15.2507C170.98 16.0387 170.864 16.8268 170.609 17.5916C170.377 18.2638 170.029 18.9127 169.566 19.4458C169.102 19.9789 168.523 20.3961 167.874 20.6742C167.155 20.9755 166.367 21.1378 165.579 21.1146C164.791 21.1378 164.003 20.9755 163.261 20.6742C162.613 20.3961 162.033 19.9789 161.546 19.4458C161.083 18.9127 160.712 18.2638 160.48 17.5916C160.225 16.85 160.109 16.0619 160.109 15.2507L160.086 15.0189ZM163.03 15.2507C163.03 15.7143 163.076 16.1546 163.169 16.595C163.238 16.989 163.401 17.3599 163.609 17.7075C164.003 18.3797 164.745 18.7737 165.51 18.7273C165.904 18.7505 166.275 18.6346 166.622 18.4492C166.924 18.2638 167.202 18.0088 167.387 17.6843C167.596 17.3367 167.735 16.9658 167.827 16.5718C167.92 16.1315 167.966 15.6679 167.966 15.2275V14.9958C167.966 14.5554 167.92 14.115 167.827 13.6747C167.735 13.2806 167.596 12.9098 167.387 12.5853C167.202 12.284 166.947 12.0059 166.622 11.8436C165.579 11.241 164.235 11.5655 163.609 12.5853C163.401 12.933 163.261 13.3038 163.169 13.6978C163.076 14.1382 163.03 14.5786 163.03 15.0189V15.2507Z" fill="#232323"/>
<path d="M183.426 9.15506C183.843 9.15506 184.26 9.17824 184.654 9.24777C184.979 9.29412 185.28 9.36366 185.581 9.43319L185.141 12.3999C184.747 12.3072 184.353 12.2376 183.936 12.1913C183.542 12.1449 183.171 12.1218 182.777 12.1218C182.081 12.0986 181.386 12.2608 180.784 12.6085C180.274 12.933 179.88 13.4197 179.648 13.976V20.8596H176.704V9.38683H179.462L179.602 11.2642C180.042 10.6384 180.621 10.1053 181.293 9.71132C181.942 9.34048 182.684 9.15506 183.426 9.15506Z" fill="#232323"/>
<path d="M189.568 15.0421C189.568 14.2309 189.66 13.4197 189.892 12.6548C190.078 11.9827 190.402 11.3569 190.819 10.8007C191.213 10.2907 191.7 9.87356 192.279 9.59543C192.882 9.29412 193.554 9.15506 194.226 9.15506C194.829 9.13188 195.408 9.24777 195.965 9.50272C196.451 9.73449 196.869 10.059 197.193 10.4762L197.309 9.38683H199.998V20.512C200.021 21.2305 199.882 21.949 199.604 22.5979C199.349 23.1774 198.978 23.7104 198.491 24.1276C197.981 24.568 197.402 24.8925 196.776 25.0779C196.057 25.3097 195.316 25.4024 194.551 25.4024C194.18 25.4024 193.809 25.356 193.438 25.2865C193.044 25.217 192.65 25.1011 192.256 24.962C191.862 24.823 191.491 24.6144 191.144 24.4058C190.796 24.174 190.495 23.8959 190.263 23.5714L191.584 21.7635C191.932 22.1807 192.372 22.5052 192.859 22.737C193.346 22.9688 193.856 23.0847 194.389 23.0615C195.223 23.0615 195.872 22.8297 196.336 22.3893C196.799 21.949 197.031 21.3232 197.031 20.512V19.863C196.683 20.2338 196.266 20.5351 195.826 20.7437C195.316 20.9755 194.759 21.0682 194.226 21.0682C193.554 21.0682 192.905 20.9292 192.303 20.6279C191.723 20.3265 191.237 19.9094 190.843 19.4226C190.425 18.8664 190.101 18.2406 189.915 17.5684C189.684 16.8268 189.591 16.0387 189.591 15.2507V15.0421H189.568ZM192.511 15.2739C192.511 15.7143 192.558 16.1778 192.65 16.6182C192.743 17.0122 192.882 17.3598 193.091 17.7075C193.276 18.0088 193.531 18.2638 193.832 18.426C194.157 18.6114 194.528 18.7041 194.922 18.7041C195.362 18.7273 195.802 18.6114 196.196 18.4028C196.544 18.1942 196.799 17.9161 197.008 17.5684V12.7012C196.822 12.3535 196.544 12.0754 196.196 11.8668C195.802 11.6582 195.385 11.5655 194.945 11.5655C194.574 11.5655 194.18 11.6582 193.856 11.8436C193.554 12.0291 193.276 12.284 193.091 12.5853C192.882 12.933 192.72 13.3038 192.627 13.6978C192.534 14.1382 192.465 14.6017 192.488 15.0421L192.511 15.2739Z" fill="#232323"/>
<path d="M17.8003 20.8596C17.7307 20.6974 17.6612 20.5351 17.6149 20.3729C17.5685 20.1875 17.5221 19.9789 17.4758 19.7935C17.3135 19.9789 17.105 20.1411 16.9195 20.3034C16.7109 20.4656 16.4792 20.6047 16.2242 20.7206C15.9461 20.8365 15.6448 20.9292 15.3666 20.9987C15.0422 21.0682 14.6945 21.0914 14.37 21.0914C13.8138 21.0914 13.2807 21.0219 12.7476 20.8365C12.2841 20.6742 11.8437 20.4424 11.4728 20.118C10.7544 19.5153 10.3372 18.6114 10.3372 17.6612C10.3372 16.4559 10.7775 15.5057 11.6814 14.8567C12.5854 14.1845 13.9297 13.8601 15.7143 13.8601H17.3831V13.1879C17.4063 12.7012 17.1977 12.2145 16.85 11.8668C16.4792 11.5423 15.9693 11.3801 15.2971 11.3801C14.6945 11.3801 14.2541 11.496 13.976 11.7741C13.6979 12.0522 13.5356 12.4231 13.5588 12.8171H10.6153C10.6153 12.3304 10.7312 11.8668 10.9398 11.4264C11.1715 10.9861 11.496 10.5689 11.89 10.2676C12.3536 9.91991 12.8635 9.64179 13.3966 9.47954C14.0687 9.27095 14.764 9.17824 15.4594 9.17824C16.1083 9.17824 16.7573 9.24777 17.4063 9.43319C17.9625 9.59543 18.4956 9.85038 18.9591 10.198C19.3995 10.5225 19.7703 10.9629 20.0021 11.4728C20.2571 12.0291 20.3961 12.6317 20.373 13.2343V18.1711C20.373 18.681 20.3961 19.1909 20.4888 19.7008C20.5584 20.0716 20.6743 20.4193 20.8365 20.7437V20.8596H17.8003ZM14.9958 18.7968C15.2739 18.7968 15.5521 18.7737 15.807 18.7041C16.0388 18.6346 16.2706 18.5419 16.5023 18.426C16.6878 18.3333 16.8732 18.1942 17.0354 18.032C17.1745 17.8929 17.2904 17.7539 17.3831 17.5916V15.6215H15.8765C15.4825 15.6215 15.0885 15.6679 14.6945 15.7606C14.4164 15.8301 14.1382 15.946 13.9065 16.1314C13.6979 16.2705 13.5356 16.4791 13.4429 16.7109C13.3502 16.9427 13.2807 17.1976 13.3039 17.4294C13.3039 17.8002 13.4429 18.1711 13.7211 18.426C13.9992 18.6578 14.4164 18.7968 14.9958 18.7968Z" fill="#232323"/>
<path d="M15.4129 30.8259C6.90686 30.8259 0 23.919 0 15.4129C0 6.90686 6.90686 0 15.4129 0C23.919 0 30.8259 6.90686 30.8259 15.4129C30.8259 23.919 23.919 30.8259 15.4129 30.8259ZM15.4129 2.22503C8.13526 2.22503 2.22503 8.13526 2.22503 15.4129C2.22503 22.6906 8.13526 28.6009 15.4129 28.6009C22.6906 28.6009 28.6009 22.6906 28.6009 15.4129C28.6009 8.13526 22.6906 2.22503 15.4129 2.22503Z" fill="#232323"/>
</svg>
