<svg width="158" height="51" viewBox="0 0 158 51" fill="none" xmlns="http://www.w3.org/2000/svg">
<path d="M70.4513 33.555C70.7534 33.555 71.0378 33.5728 71.3399 33.6084C71.6421 33.6439 71.8731 33.6972 72.0686 33.7683L71.9264 34.888C71.6598 34.8347 71.3755 34.7814 71.1089 34.7458C70.8423 34.7103 70.5579 34.6925 70.2736 34.6925C69.2783 34.6925 68.443 34.9235 67.7498 35.4034C67.0567 35.8833 66.5768 36.5942 66.2925 37.5717V44.3609H65.0839V33.7328H66.2036L66.2747 35.5811V35.7944C66.7012 35.1013 67.2877 34.5503 67.9987 34.1415C68.7096 33.7328 69.5271 33.5373 70.4691 33.5373L70.4513 33.555Z" fill="#232323"/>
<path d="M80.2263 44.5564C79.4798 44.5564 78.8045 44.4142 78.2002 44.1476C77.5959 43.881 77.0627 43.5078 76.6362 43.0279C76.2096 42.548 75.872 41.9971 75.6231 41.375C75.3743 40.753 75.2677 40.0776 75.2499 39.3667V38.9402C75.2499 38.1759 75.3743 37.4828 75.6231 36.8252C75.872 36.1676 76.2096 35.5989 76.6362 35.119C77.0627 34.6391 77.5604 34.2481 78.1291 33.9816C78.6978 33.6972 79.3199 33.5728 79.9775 33.5728C80.6884 33.5728 81.3104 33.6972 81.8436 33.9638C82.3946 34.2126 82.8389 34.5681 83.2121 35.0124C83.5853 35.4567 83.8697 35.9721 84.0474 36.5586C84.2429 37.1451 84.3318 37.7849 84.3496 38.4603V39.1712H76.4051V39.4023C76.4051 39.9532 76.5118 40.4864 76.6895 41.0018C76.8672 41.5172 77.1338 41.9615 77.4715 42.3348C77.8092 42.708 78.2002 43.0279 78.6801 43.2589C79.1599 43.49 79.6753 43.6144 80.2441 43.6144C80.9016 43.6144 81.4881 43.5078 82.0213 43.2589C82.5545 43.0101 82.9988 42.6547 83.3721 42.1748L84.1185 42.7435C83.923 43.0101 83.692 43.2767 83.4254 43.5078C83.1588 43.7388 82.8567 43.9343 82.519 44.0943C82.1813 44.2542 81.8258 44.3786 81.4348 44.4853C81.0438 44.5919 80.6351 44.6275 80.1907 44.6275L80.2263 44.5564ZM79.9952 34.5503C79.5154 34.5503 79.0711 34.6391 78.6801 34.8169C78.2891 34.9946 77.9336 35.2434 77.6315 35.5633C77.3293 35.8832 77.0805 36.2565 76.885 36.7008C76.6895 37.1273 76.5473 37.6072 76.4762 38.1226H83.1943V37.9982C83.1943 37.5539 83.1055 37.1273 82.9455 36.7186C82.8033 36.3098 82.5901 35.9366 82.3235 35.6167C82.0569 35.2967 81.7192 35.0302 81.3282 34.8347C80.9372 34.6391 80.4929 34.5325 79.9775 34.5325L79.9952 34.5503Z" fill="#232323"/>
<path d="M95.3687 41.6594C95.3687 41.3395 95.2799 41.0551 95.1199 40.8063C94.9599 40.5575 94.7289 40.362 94.4445 40.1843C94.1602 40.0066 93.8225 39.8644 93.4493 39.74C93.076 39.6156 92.685 39.5267 92.2585 39.4378C91.7431 39.3312 91.2454 39.2068 90.7833 39.0646C90.3212 38.9224 89.8769 38.7269 89.5037 38.4959C89.1305 38.2648 88.8283 37.9805 88.6151 37.6605C88.384 37.3229 88.2774 36.9319 88.2774 36.4342C88.2774 35.9721 88.384 35.5634 88.6151 35.2079C88.8461 34.8524 89.1482 34.5503 89.5215 34.3015C89.8947 34.0527 90.3213 33.8572 90.8011 33.7328C91.281 33.6084 91.7786 33.5373 92.2763 33.5373C92.845 33.5373 93.3959 33.6084 93.8936 33.7505C94.3912 33.8927 94.8355 34.0882 95.2088 34.3726C95.582 34.6392 95.8841 34.9769 96.1152 35.3679C96.3284 35.7589 96.4529 36.2032 96.4706 36.7186H95.2976C95.2976 36.3809 95.191 36.0788 95.031 35.7944C94.8711 35.51 94.64 35.2968 94.3557 35.119C94.0713 34.9413 93.7514 34.7991 93.3959 34.6925C93.0405 34.5859 92.6673 34.5503 92.294 34.5503C91.9386 34.5503 91.6009 34.5859 91.2632 34.6569C90.9255 34.728 90.6234 34.8524 90.3568 34.9946C90.0902 35.1546 89.8769 35.3323 89.717 35.5811C89.557 35.8299 89.4682 36.0788 89.4682 36.3987C89.4682 36.7364 89.5392 37.0207 89.6992 37.234C89.8592 37.4473 90.0724 37.6428 90.3568 37.8027C90.6412 37.9627 90.9611 38.0871 91.3165 38.1937C91.6898 38.3004 92.0808 38.3892 92.5073 38.4781C93.0405 38.5847 93.5559 38.7269 94.0358 38.8869C94.5156 39.0468 94.96 39.2423 95.3332 39.4911C95.7064 39.74 96.0085 40.0243 96.2218 40.362C96.4351 40.6997 96.5417 41.1262 96.5417 41.6061C96.5417 42.086 96.4173 42.5303 96.1863 42.9035C95.9552 43.2767 95.6353 43.5789 95.2443 43.8277C94.8533 44.0765 94.409 44.2542 93.9114 44.3787C93.4137 44.5031 92.8983 44.5564 92.3651 44.5564C91.7608 44.5564 91.2099 44.4853 90.6767 44.3431C90.1435 44.2009 89.6814 43.9877 89.2904 43.7211C88.8994 43.4545 88.5617 43.1168 88.3307 42.7258C88.0819 42.3348 87.9575 41.8905 87.9397 41.3928H89.1127C89.1483 41.8194 89.2727 42.1571 89.4859 42.4414C89.6992 42.7258 89.9658 42.9391 90.2679 43.1168C90.5701 43.2767 90.9255 43.4012 91.281 43.4722C91.6542 43.5433 92.0097 43.5789 92.3651 43.5789C92.7206 43.5789 93.076 43.5433 93.4315 43.4722C93.7869 43.4012 94.1069 43.2767 94.3912 43.1346C94.6756 42.9746 94.9066 42.7791 95.0844 42.5481C95.2621 42.317 95.3509 42.0149 95.3687 41.695V41.6594Z" fill="#232323"/>
<path d="M104.753 44.5564C104.006 44.5564 103.331 44.4142 102.727 44.1476C102.122 43.881 101.589 43.5078 101.163 43.0279C100.736 42.548 100.398 41.9971 100.15 41.375C99.9186 40.7352 99.7942 40.0776 99.7764 39.3667V38.9402C99.7764 38.1759 99.9008 37.4828 100.15 36.8252C100.398 36.1676 100.736 35.5989 101.163 35.119C101.589 34.6391 102.087 34.2481 102.656 33.9816C103.224 33.6972 103.846 33.5728 104.504 33.5728C105.215 33.5728 105.837 33.6972 106.37 33.9638C106.921 34.2126 107.365 34.5681 107.739 35.0124C108.112 35.4567 108.396 35.9721 108.574 36.5586C108.769 37.1451 108.858 37.7849 108.876 38.4603V39.1712H100.932V39.4023C100.932 39.9532 101.038 40.4864 101.216 41.0018C101.394 41.5172 101.66 41.9615 101.998 42.3348C102.336 42.7258 102.727 43.0279 103.207 43.2589C103.686 43.49 104.202 43.6144 104.771 43.6144C105.428 43.6144 106.015 43.5078 106.548 43.2589C107.081 43.0101 107.525 42.6547 107.899 42.1748L108.645 42.7435C108.45 43.0101 108.218 43.2767 107.952 43.5078C107.685 43.7388 107.383 43.9343 107.045 44.0943C106.708 44.2542 106.352 44.3786 105.961 44.4853C105.57 44.5919 105.162 44.6275 104.717 44.6275L104.753 44.5564ZM104.522 34.5503C104.042 34.5503 103.598 34.6391 103.207 34.8169C102.816 34.9946 102.46 35.2434 102.158 35.5633C101.856 35.8832 101.607 36.2565 101.411 36.7008C101.216 37.1273 101.074 37.6072 101.003 38.1226H107.721V37.9982C107.721 37.5539 107.632 37.1273 107.472 36.7186C107.33 36.3098 107.117 35.9366 106.85 35.6167C106.583 35.2967 106.246 35.0302 105.855 34.8347C105.464 34.6391 105.019 34.5325 104.504 34.5325L104.522 34.5503Z" fill="#232323"/>
<path d="M119.789 44.3609C119.717 44.1476 119.664 43.8988 119.629 43.6322C119.593 43.3656 119.557 43.099 119.557 42.8147C119.362 43.0635 119.113 43.2945 118.847 43.5078C118.58 43.7211 118.278 43.8988 117.976 44.0587C117.656 44.2187 117.318 44.3253 116.945 44.4142C116.572 44.5031 116.198 44.5386 115.79 44.5386C115.292 44.5386 114.83 44.4675 114.403 44.3253C113.977 44.1832 113.604 43.9877 113.284 43.7211C112.964 43.4545 112.715 43.1346 112.537 42.7791C112.359 42.4237 112.271 41.9971 112.271 41.535C112.271 40.9307 112.413 40.4153 112.679 39.9888C112.946 39.5622 113.319 39.2246 113.764 38.958C114.226 38.6914 114.759 38.4959 115.345 38.3715C115.932 38.247 116.572 38.176 117.247 38.176H119.54V36.9674C119.54 36.5764 119.451 36.221 119.309 35.9188C119.166 35.6167 118.953 35.3501 118.687 35.1546C118.42 34.9591 118.118 34.7991 117.762 34.6925C117.407 34.5859 117.016 34.5325 116.607 34.5325C116.234 34.5325 115.861 34.5859 115.523 34.6747C115.185 34.7636 114.883 34.9058 114.617 35.1013C114.35 35.2968 114.137 35.51 113.977 35.7766C113.817 36.0432 113.728 36.3454 113.71 36.683H112.537C112.555 36.221 112.679 35.8122 112.893 35.4212C113.106 35.0479 113.408 34.7103 113.781 34.4259C114.155 34.1415 114.581 33.9283 115.079 33.7683C115.576 33.6084 116.11 33.5373 116.661 33.5373C117.211 33.5373 117.745 33.6084 118.242 33.7505C118.74 33.8927 119.166 34.106 119.522 34.3904C119.877 34.6747 120.18 35.0302 120.393 35.4745C120.606 35.9188 120.713 36.4165 120.713 36.9852V42.1215C120.713 42.477 120.748 42.8324 120.802 43.1879C120.855 43.5433 120.944 43.8988 121.033 44.2187V44.3431H119.789V44.3609ZM115.914 43.5256C116.323 43.5256 116.714 43.49 117.105 43.3834C117.478 43.2767 117.834 43.1346 118.136 42.9391C118.438 42.7436 118.722 42.5303 118.971 42.2637C119.22 41.9971 119.398 41.7305 119.54 41.4106V39.0824H117.407C116.892 39.0824 116.394 39.1179 115.914 39.2068C115.434 39.2956 115.008 39.4201 114.652 39.5978C114.279 39.7755 113.995 40.0243 113.781 40.3265C113.568 40.6286 113.461 41.0018 113.461 41.4462C113.461 41.7661 113.532 42.0504 113.657 42.317C113.781 42.5658 113.959 42.7969 114.19 42.9746C114.403 43.1523 114.67 43.2945 114.972 43.3834C115.274 43.4722 115.594 43.5256 115.95 43.5256H115.914Z" fill="#232323"/>
<path d="M131.767 33.555C132.07 33.555 132.354 33.5728 132.656 33.6084C132.958 33.6439 133.189 33.6972 133.385 33.7683L133.243 34.888C132.976 34.8347 132.692 34.7814 132.425 34.7458C132.158 34.7103 131.874 34.6925 131.59 34.6925C130.594 34.6925 129.759 34.9235 129.066 35.4034C128.373 35.8833 127.893 36.5942 127.609 37.5717V44.3609H126.4V33.7328H127.52L127.591 35.5811V35.7944C128.017 35.1013 128.604 34.5503 129.315 34.1415C130.026 33.7328 130.843 33.5373 131.785 33.5373L131.767 33.555Z" fill="#232323"/>
<path d="M141.311 43.5789C141.702 43.5789 142.076 43.5255 142.431 43.4011C142.786 43.2945 143.106 43.1168 143.373 42.9035C143.64 42.6902 143.871 42.4236 144.048 42.1215C144.226 41.8194 144.315 41.4639 144.35 41.0907H145.488C145.47 41.5883 145.328 42.0682 145.097 42.4769C144.866 42.9035 144.546 43.2767 144.173 43.5789C143.8 43.881 143.355 44.1298 142.875 44.3075C142.378 44.4853 141.862 44.5741 141.329 44.5741C140.547 44.5741 139.872 44.432 139.303 44.1298C138.734 43.8277 138.254 43.4367 137.863 42.9568C137.472 42.4592 137.188 41.9082 136.993 41.2684C136.797 40.6286 136.708 39.971 136.708 39.2778V38.8691C136.708 38.1759 136.797 37.5183 136.993 36.8785C137.188 36.2387 137.472 35.67 137.863 35.1901C138.254 34.6925 138.717 34.3015 139.303 34.0171C139.872 33.715 140.547 33.5728 141.329 33.5728C141.916 33.5728 142.467 33.6616 142.964 33.8571C143.462 34.0526 143.906 34.3015 144.262 34.6391C144.635 34.9768 144.919 35.3678 145.132 35.8299C145.346 36.292 145.47 36.7897 145.488 37.3406H144.35C144.333 36.9496 144.244 36.5764 144.084 36.2387C143.924 35.901 143.711 35.5989 143.444 35.3501C143.177 35.1012 142.858 34.9057 142.502 34.7636C142.147 34.6214 141.738 34.5503 141.311 34.5503C140.689 34.5503 140.174 34.6747 139.73 34.9235C139.285 35.1723 138.948 35.4922 138.663 35.901C138.379 36.3098 138.183 36.7719 138.059 37.2873C137.935 37.8027 137.863 38.3181 137.863 38.8513V39.2601C137.863 39.7933 137.935 40.3264 138.059 40.8419C138.183 41.3573 138.379 41.8194 138.663 42.2281C138.93 42.6369 139.285 42.9568 139.73 43.2056C140.174 43.4544 140.689 43.5789 141.311 43.5789Z" fill="#232323"/>
<path d="M150.447 35.7944C150.82 35.119 151.317 34.5681 151.939 34.1593C152.561 33.7505 153.272 33.555 154.072 33.5372C154.659 33.5372 155.174 33.6261 155.618 33.8038C156.063 33.9816 156.436 34.2482 156.756 34.5858C157.058 34.9235 157.289 35.3501 157.449 35.8477C157.609 36.3453 157.698 36.9141 157.698 37.5539V44.3431H156.525V37.5539C156.525 37.074 156.471 36.6653 156.365 36.292C156.258 35.9188 156.08 35.5989 155.867 35.3501C155.654 35.1012 155.352 34.888 155.014 34.7636C154.676 34.6214 154.268 34.5503 153.823 34.5503C153.45 34.5503 153.095 34.6036 152.757 34.728C152.419 34.8524 152.099 35.0124 151.815 35.2257C151.531 35.4389 151.264 35.6877 151.051 35.9721C150.82 36.2565 150.642 36.5764 150.5 36.9141V44.3609H149.327V29.2896H150.5V35.7944H150.447Z" fill="#232323"/>
<path d="M65.5282 24.3665V14.2893H62.258V11.9255H65.5282V11.2502C65.5282 10.4326 65.6526 9.70395 65.9192 9.0819C66.1858 8.45986 66.559 7.92667 67.0389 7.50013C67.5188 7.07358 68.1053 6.75367 68.7984 6.52262C69.4915 6.30935 70.2558 6.20271 71.1089 6.20271C71.3755 6.20271 71.6421 6.20271 71.8909 6.23826C72.1397 6.25603 72.3885 6.2738 72.6196 6.30935C72.8506 6.3449 73.0994 6.38044 73.3305 6.41599C73.5793 6.45153 73.8281 6.50485 74.0769 6.5404L73.8636 9.04636C73.5793 8.99304 73.2416 8.93972 72.8684 8.8864C72.4951 8.83308 72.0686 8.81531 71.571 8.81531C70.5757 8.81531 69.847 9.02858 69.4027 9.45513C68.9584 9.88168 68.7273 10.486 68.7273 11.268V11.9433H73.2061V14.3071H68.7273V24.3843H65.5104L65.5282 24.3665Z" fill="#232323"/>
<path d="M76.1208 18.0394C76.1208 17.133 76.2452 16.2976 76.5118 15.5334C76.7784 14.7692 77.1516 14.0938 77.6493 13.5251C78.1469 12.9564 78.769 12.512 79.4799 12.1921C80.1908 11.8722 81.0261 11.7123 81.9681 11.7123C82.91 11.7123 83.7276 11.8722 84.4563 12.1921C85.1849 12.512 85.807 12.9564 86.3046 13.5251C86.8023 14.0938 87.1933 14.7692 87.4421 15.5334C87.7087 16.2976 87.8331 17.133 87.8331 18.0394V18.2882C87.8331 19.1946 87.7087 20.0477 87.4421 20.8119C87.1755 21.5762 86.8023 22.2515 86.3046 22.8203C85.807 23.389 85.1849 23.8333 84.474 24.1532C83.7454 24.4731 82.91 24.6331 81.9858 24.6331C81.0617 24.6331 80.2263 24.4731 79.4799 24.1532C78.7512 23.8333 78.1292 23.389 77.6315 22.8203C77.1339 22.2515 76.7429 21.5762 76.494 20.8119C76.2452 20.0477 76.1031 19.1946 76.1031 18.2882V18.0394H76.1208ZM79.3199 18.2704C79.3199 18.7858 79.3732 19.2835 79.4621 19.7278C79.551 20.1721 79.7109 20.5809 79.942 20.9186C80.173 21.2562 80.4396 21.5228 80.7773 21.7361C81.115 21.9316 81.5237 22.0383 82.0214 22.0383C82.519 22.0383 82.8922 21.9316 83.2299 21.7361C83.5676 21.5406 83.8342 21.274 84.0475 20.9186C84.2608 20.5809 84.4207 20.1721 84.5096 19.7278C84.5984 19.2835 84.6518 18.7858 84.6518 18.2704V18.0216C84.6518 17.524 84.5984 17.0441 84.5096 16.582C84.4029 16.1377 84.2608 15.7289 84.0475 15.3912C83.8342 15.0535 83.5676 14.7692 83.2299 14.5737C82.8922 14.3782 82.4835 14.2715 82.0036 14.2715C81.5238 14.2715 81.115 14.3782 80.7773 14.5737C80.4396 14.7692 80.1552 15.0535 79.942 15.3912C79.7287 15.7289 79.5687 16.1377 79.4621 16.582C79.3555 17.0263 79.3199 17.5062 79.3199 18.0216V18.2704Z" fill="#232323"/>
<path d="M99.6164 11.6945C100.096 11.6945 100.541 11.73 100.949 11.8011C101.358 11.8722 101.696 11.9433 101.945 12.0144L101.465 15.1957C101.038 15.0891 100.612 15.018 100.167 14.9647C99.7231 14.9114 99.3143 14.8936 98.9055 14.8936C98.0169 14.8936 97.2882 15.0713 96.755 15.409C96.2218 15.7467 95.813 16.2443 95.5464 16.8842V24.3487H92.3474V11.9078H95.3332L95.4754 13.9339C95.973 13.223 96.595 12.672 97.2882 12.281C97.9991 11.8722 98.7633 11.6767 99.5986 11.6767L99.6164 11.6945Z" fill="#232323"/>
<path d="M112.768 20.4742L113.852 11.9255H116.785L114.563 24.3665H111.755L110.12 16.4576L108.538 24.3665H105.73L103.509 11.9255H106.423L107.508 20.5098L109.072 11.9255H111.204L112.768 20.4742Z" fill="#232323"/>
<path d="M126.72 24.3665C126.649 24.2065 126.578 24.0288 126.524 23.8333C126.471 23.6378 126.418 23.4245 126.382 23.1935C126.205 23.389 126.009 23.5667 125.778 23.7267C125.547 23.9044 125.298 24.0466 125.014 24.171C124.729 24.2954 124.427 24.402 124.09 24.4731C123.752 24.5442 123.396 24.5798 123.005 24.5798C122.366 24.5798 121.779 24.4909 121.246 24.2954C120.713 24.1177 120.251 23.8511 119.877 23.5312C119.504 23.2112 119.202 22.8025 118.989 22.3582C118.775 21.9138 118.669 21.3984 118.669 20.8652C118.669 19.5501 119.166 18.537 120.126 17.8261C121.086 17.1152 122.561 16.742 124.498 16.742H126.276V16.0133C126.276 15.409 126.08 14.9469 125.689 14.5915C125.298 14.236 124.729 14.076 124.001 14.076C123.343 14.076 122.881 14.2182 122.579 14.5026C122.277 14.787 122.135 15.1602 122.135 15.6223H118.935C118.935 15.0891 119.06 14.5915 119.291 14.1116C119.522 13.6317 119.86 13.2229 120.322 12.8675C120.766 12.512 121.317 12.2277 121.957 12.0144C122.597 11.8011 123.343 11.6945 124.178 11.6945C124.925 11.6945 125.636 11.7834 126.276 11.9789C126.915 12.1744 127.484 12.4409 127.964 12.7964C128.444 13.1519 128.817 13.6139 129.084 14.1649C129.35 14.7159 129.492 15.3557 129.492 16.0666V21.3984C129.492 22.0738 129.528 22.6247 129.617 23.0513C129.706 23.4956 129.83 23.8688 129.99 24.171V24.3665H126.755H126.72ZM123.663 22.1271C123.983 22.1271 124.285 22.0916 124.552 22.0205C124.818 21.9494 125.085 21.8427 125.298 21.7183C125.511 21.5939 125.707 21.4517 125.867 21.2918C126.027 21.1318 126.151 20.9719 126.24 20.8119V18.6792H124.605C124.107 18.6792 123.681 18.7325 123.325 18.8214C122.97 18.9102 122.686 19.0524 122.472 19.2301C122.259 19.4079 122.081 19.6034 121.975 19.8522C121.868 20.101 121.815 20.3498 121.815 20.6342C121.815 21.0607 121.957 21.4162 122.277 21.7006C122.579 21.9849 123.041 22.1271 123.645 22.1271H123.663Z" fill="#232323"/>
<path d="M142.004 11.6945C142.484 11.6945 142.929 11.73 143.337 11.8011C143.746 11.8722 144.084 11.9433 144.333 12.0144L143.853 15.1957C143.426 15.0891 143 15.018 142.555 14.9647C142.111 14.9114 141.702 14.8936 141.294 14.8936C140.405 14.8936 139.676 15.0713 139.143 15.409C138.61 15.7467 138.201 16.2443 137.935 16.8842V24.3487H134.735V11.9078H137.721L137.863 13.9339C138.361 13.223 138.983 12.672 139.676 12.281C140.387 11.8722 141.151 11.6767 141.987 11.6767L142.004 11.6945Z" fill="#232323"/>
<path d="M146.874 18.0571C146.874 17.1152 146.981 16.2443 147.194 15.4623C147.407 14.6803 147.727 14.0049 148.154 13.454C148.58 12.903 149.078 12.4587 149.682 12.1566C150.287 11.8544 150.98 11.6945 151.744 11.6945C152.402 11.6945 152.97 11.8189 153.468 12.0499C153.966 12.281 154.392 12.6187 154.783 13.0452V6.71809H158V24.3842H155.121L154.961 23.0868C154.57 23.5667 154.108 23.9399 153.575 24.2065C153.041 24.4731 152.437 24.6153 151.744 24.6153C150.98 24.6153 150.304 24.4553 149.7 24.1354C149.096 23.8155 148.58 23.3712 148.172 22.8202C147.745 22.2693 147.425 21.5939 147.212 20.8297C146.981 20.0655 146.874 19.2301 146.874 18.3237V18.0749V18.0571ZM150.073 18.3059C150.073 18.8214 150.109 19.319 150.198 19.7633C150.287 20.2076 150.429 20.5986 150.624 20.9363C150.82 21.274 151.086 21.5406 151.389 21.7183C151.708 21.9138 152.082 22.0027 152.544 22.0027C153.095 22.0027 153.557 21.8783 153.912 21.6472C154.286 21.4162 154.57 21.0785 154.783 20.6697V15.64C154.57 15.2135 154.286 14.8936 153.93 14.6625C153.575 14.4315 153.113 14.3071 152.579 14.3071C152.135 14.3071 151.744 14.4137 151.424 14.6092C151.104 14.8047 150.855 15.0713 150.642 15.409C150.429 15.7467 150.304 16.1554 150.198 16.5998C150.109 17.0619 150.056 17.5417 150.056 18.0571V18.3059H150.073Z" fill="#232323"/>
<path d="M25.3795 0C39.4023 0 50.7591 11.3568 50.7591 25.3795C50.7591 39.4023 39.4023 50.7591 25.3795 50.7591C11.3568 50.7591 0 39.3845 0 25.3795C0 11.3746 11.3746 0 25.3795 0ZM46.6891 25.3795C46.6891 13.614 37.1451 4.06997 25.3795 4.06997C13.614 4.06997 4.06997 13.614 4.06997 25.3795C4.06997 37.1451 13.614 46.6891 25.3795 46.6891C37.1451 46.6891 46.6891 37.1451 46.6891 25.3795Z" fill="#232323"/>
<path d="M32.7908 10.4859V14.8936H32.5064C31.6 14.8047 30.9424 14.7692 30.267 14.7692C29.254 14.787 28.2765 14.9469 27.7255 15.6223L27.6544 15.7111C27.5656 15.8178 27.53 15.8533 27.5122 15.9066C27.4945 15.96 27.4589 15.9955 27.3878 16.1199L27.3345 16.2265C27.1568 16.5642 27.0857 16.973 27.0857 17.3995V19.6922H31.7599V24.2243H27.0857V42.6013H21.5584V24.2243H18.0571V19.6922H21.5584V17.6128C21.5584 16.3687 21.7006 15.0891 22.2337 13.9339C22.6425 13.0452 23.3001 11.89 24.8286 11.108C26.357 10.326 28.7386 9.93498 32.5597 10.4682L32.7908 10.5037V10.4859Z" fill="#232323"/>
</svg>
