<svg width="154" height="36" viewBox="0 0 154 36" fill="none" xmlns="http://www.w3.org/2000/svg">
<path d="M113.553 34.5794C113.553 34.9331 113.423 35.2385 113.163 35.4958C112.904 35.753 112.595 35.8816 112.238 35.8816H105.854C105.497 35.8816 105.188 35.753 104.928 35.4958C104.668 35.2385 104.538 34.9331 104.538 34.5794V28.2619C104.538 27.9083 104.668 27.6029 104.928 27.3457C105.188 27.0884 105.497 26.9599 105.854 26.9599H112.238C112.595 26.9599 112.904 27.0884 113.163 27.3457C113.423 27.6029 113.553 27.9083 113.553 28.2619V34.5794Z" fill="#323232"/>
<path d="M42.8389 21.0539C42.8389 9.42614 33.3688 0 21.6869 0C10.005 0 0.0817635 9.42614 0.0817635 21.0539V34.1945C0.0804859 34.6401 0.257743 35.0678 0.57428 35.3829C0.890816 35.6979 1.32051 35.8743 1.76815 35.8731H4.17726C4.62491 35.8743 5.05459 35.6979 5.37113 35.3829C5.68767 35.0678 5.86492 34.6401 5.86364 34.1945V23.2791C5.86364 22.3521 6.61866 21.6005 7.55002 21.6005H10.9806C11.912 21.6005 12.667 22.3521 12.667 23.2791V34.1945C12.6657 34.6401 12.8429 35.0678 13.1595 35.3829C13.476 35.6979 13.9057 35.8743 14.3533 35.8731H16.7625C17.2101 35.8743 17.6399 35.6979 17.9563 35.3829C18.2728 35.0678 18.4502 34.6401 18.4489 34.1945V30.8806C18.4489 27.5652 20.2259 24.5016 23.1105 22.8439C25.9952 21.1862 29.5492 21.1862 32.4338 22.8439C35.3184 24.5016 37.0954 27.5652 37.0954 30.8806V34.1945C37.0954 35.1215 37.8504 35.8731 38.7818 35.8731H41.1622C42.0935 35.8731 42.8486 35.1215 42.8486 34.1945L42.8389 21.0539ZM12.2574 16.5722C11.9419 17.079 11.509 17.5033 10.995 17.8096C10.0995 18.321 9.02406 18.4174 8.05112 18.0734C7.90974 18.0298 7.77514 17.9669 7.6512 17.8863C6.53989 17.2789 5.84924 16.1172 5.84924 14.8553C5.84924 13.5934 6.53989 12.4317 7.6512 11.8243C7.78097 11.7419 7.92221 11.6789 8.07039 11.6373C9.33513 11.1947 10.7427 11.5073 11.6985 12.443C12.3705 13.0607 12.7515 13.9304 12.749 14.8409C12.7478 15.452 12.5778 16.051 12.2574 16.5722Z" fill="#171717"/>
<path d="M100.616 10.8042C100.973 10.8042 101.282 10.9328 101.542 11.19C101.802 11.4472 101.932 11.7527 101.932 12.1063V16.9771C101.932 17.3308 101.802 17.6362 101.542 17.8934C101.282 18.1505 100.973 18.2792 100.616 18.2792H96.1814C93.1927 18.2792 91.6982 19.7581 91.6982 22.716V34.5794C91.6982 34.9331 91.5682 35.2385 91.3084 35.4958C91.0485 35.753 90.7398 35.8816 90.3824 35.8816H84.2425C83.885 35.8816 83.5764 35.753 83.3165 35.4958C83.0567 35.2385 82.9267 34.9331 82.9267 34.5794V12.1063C82.9267 11.7527 83.0567 11.4472 83.3165 11.19C83.5764 10.9328 83.885 10.8042 84.2425 10.8042H89.8952C90.2526 10.8042 90.5612 10.9328 90.821 11.19C91.0809 11.4472 91.2109 11.7527 91.2109 12.1063V13.2155C91.9581 12.5082 92.8515 11.9295 93.8911 11.4794C94.9632 11.0293 96.2301 10.8042 97.692 10.8042H100.616Z" fill="#323232"/>
<path d="M55.3098 28.2365C55.3098 26.1146 56.122 24.3624 57.7463 22.98C59.4032 21.5975 62.0833 20.5848 65.7869 19.9417L71.4883 18.9772C71.4883 18.2056 71.2772 17.5787 70.8548 17.0964C70.4325 16.582 69.7015 16.3247 68.662 16.3247C67.9147 16.3247 67.33 16.4373 66.9077 16.6624C66.5178 16.8553 66.2255 17.0322 66.0305 17.1929C65.7381 17.45 65.462 17.6108 65.2021 17.6752C64.9421 17.7395 64.6335 17.7715 64.2762 17.7715H58.0874C57.7625 17.7715 57.4864 17.6752 57.259 17.4822C57.064 17.2893 56.9828 17.0322 57.0153 16.7106C57.0803 15.9711 57.4051 15.1996 57.99 14.3958C58.5747 13.592 59.3707 12.8525 60.3777 12.1774C61.4173 11.5022 62.6356 10.9396 64.0326 10.4895C65.462 10.0394 67.005 9.81435 68.662 9.81435C70.6436 9.81435 72.3655 10.0555 73.8275 10.5377C75.2893 11.02 76.4913 11.6951 77.4334 12.5632C78.4081 13.3992 79.1228 14.4119 79.5775 15.6015C80.0324 16.7588 80.2599 18.0449 80.2599 19.4595V34.4102C80.2599 34.7639 80.1299 35.0693 79.87 35.3266C79.61 35.5838 79.3014 35.7124 78.9441 35.7124H72.804C72.4466 35.7124 72.138 35.5838 71.8782 35.3266C71.6183 35.0693 71.4883 34.7639 71.4883 34.4102V32.7215C70.7086 33.6861 69.734 34.4576 68.5645 35.0364C67.4274 35.5829 65.9168 35.8562 64.0326 35.8562C62.6356 35.8562 61.3848 35.6633 60.2803 35.2775C59.2082 34.8916 58.2986 34.3612 57.5514 33.6861C56.8367 33.0109 56.2843 32.2071 55.8945 31.2747C55.5047 30.3424 55.3098 29.3297 55.3098 28.2365ZM66.4203 29.3457C67.135 29.3457 67.801 29.2332 68.4183 29.0082C69.0356 28.751 69.5715 28.4133 70.0264 27.9955C70.4812 27.5775 70.8386 27.0952 71.0985 26.5487C71.3583 25.9699 71.4883 25.3591 71.4883 24.7161L67.0052 25.3912C66.128 25.552 65.4132 25.8253 64.8609 26.2111C64.3412 26.5969 64.0813 27.0952 64.0813 27.706C64.0813 28.3169 64.2762 28.751 64.666 29.0082C65.0884 29.2332 65.6731 29.3457 66.4203 29.3457Z" fill="#323232"/>
<path d="M113.553 34.5794C113.553 34.9331 113.423 35.2385 113.163 35.4958C112.904 35.753 112.595 35.8816 112.238 35.8816H105.854C105.497 35.8816 105.188 35.753 104.928 35.4958C104.668 35.2385 104.538 34.9331 104.538 34.5794V28.2619C104.538 27.9083 104.668 27.6029 104.928 27.3457C105.188 27.0884 105.497 26.9599 105.854 26.9599H112.238C112.595 26.9599 112.904 27.0884 113.163 27.3457C113.423 27.6029 113.553 27.9083 113.553 28.2619V34.5794Z" fill="#323232"/>
<path d="M124.906 34.5794C124.906 34.9331 124.776 35.2385 124.516 35.4958C124.256 35.753 123.948 35.8816 123.59 35.8816H117.45C117.093 35.8816 116.784 35.753 116.524 35.4958C116.265 35.2385 116.135 34.9331 116.135 34.5794V12.1063C116.135 11.7527 116.265 11.4472 116.524 11.19C116.784 10.9328 117.093 10.8042 117.45 10.8042H123.59C123.948 10.8042 124.256 10.9328 124.516 11.19C124.776 11.4472 124.906 11.7527 124.906 12.1063V34.5794ZM124.906 6.17288C124.906 6.52653 124.776 6.83196 124.516 7.08916C124.256 7.34637 123.948 7.47497 123.59 7.47497H117.45C117.093 7.47497 116.784 7.34637 116.524 7.08916C116.265 6.83196 116.135 6.52653 116.135 6.17288V1.30209C116.135 0.948437 116.265 0.643007 116.524 0.385803C116.784 0.1286 117.093 0 117.45 0H123.59C123.948 0 124.256 0.1286 124.516 0.385803C124.776 0.643007 124.906 0.948437 124.906 1.30209V6.17288Z" fill="#323232"/>
<path d="M154.11 21.0873C154.143 21.5695 154.159 22.1965 154.159 22.968C154.159 23.7075 154.143 24.3185 154.11 24.8006C154.046 26.3439 153.688 27.7907 153.039 29.141C152.389 30.4913 151.495 31.6809 150.358 32.7097C149.222 33.7063 147.84 34.494 146.217 35.0727C144.625 35.6515 142.837 35.9408 140.856 35.9408C138.874 35.9408 137.071 35.6515 135.446 35.0727C133.855 34.494 132.49 33.7063 131.354 32.7097C130.216 31.6809 129.323 30.4913 128.673 29.141C128.024 27.7907 127.666 26.3439 127.601 24.8006C127.568 24.3185 127.553 23.7075 127.553 22.968C127.553 22.1965 127.568 21.5695 127.601 21.0873C127.633 19.5441 127.974 18.0973 128.624 16.747C129.274 15.3967 130.168 14.2232 131.304 13.2265C132.475 12.1977 133.855 11.394 135.446 10.8152C137.071 10.2044 138.874 9.89896 140.856 9.89896C142.837 9.89896 144.625 10.2044 146.217 10.8152C147.84 11.394 149.222 12.1977 150.358 13.2265C151.528 14.2232 152.421 15.3967 153.039 16.747C153.688 18.0973 154.046 19.5441 154.11 21.0873ZM136.372 24.5595C136.47 25.7813 136.909 26.7458 137.688 27.4531C138.501 28.1282 139.556 28.4658 140.856 28.4658C142.156 28.4658 143.195 28.1282 143.975 27.4531C144.787 26.7458 145.242 25.7813 145.339 24.5595C145.404 24.0772 145.436 23.5307 145.436 22.9199C145.436 22.309 145.404 21.7625 145.339 21.2802C145.242 20.0585 144.787 19.11 143.975 18.4349C143.195 17.7275 142.156 17.3739 140.856 17.3739C139.556 17.3739 138.501 17.7275 137.688 18.4349C136.909 19.11 136.47 20.0585 136.372 21.2802C136.307 21.7625 136.275 22.309 136.275 22.9199C136.275 23.5307 136.307 24.0772 136.372 24.5595Z" fill="#323232"/>
<path d="M44.7198 21.0539C44.7198 9.42614 35.2496 0 23.5677 0C11.8858 0 1.96259 9.42614 1.96259 21.0539V34.1945C1.96131 34.6401 2.13857 35.0678 2.45511 35.3829C2.77164 35.6979 3.20133 35.8743 3.64898 35.8731H6.05808C6.50574 35.8743 6.93542 35.6979 7.25196 35.3829C7.56849 35.0678 7.74575 34.6401 7.74447 34.1945V23.2791C7.74447 22.3521 8.49949 21.6005 9.43085 21.6005H12.8614C13.7928 21.6005 14.5478 22.3521 14.5478 23.2791V34.1945C14.5465 34.6401 14.7237 35.0678 15.0404 35.3829C15.3568 35.6979 15.7865 35.8743 16.2342 35.8731H18.6432C19.091 35.8743 19.5206 35.6979 19.8372 35.3829C20.1537 35.0678 20.331 34.6401 20.3296 34.1945V30.8806C20.3296 27.5652 22.1066 24.5016 24.9913 22.8439C27.8759 21.1862 31.4299 21.1862 34.3145 22.8439C37.1992 24.5016 38.9762 27.5652 38.9762 30.8806V34.1945C38.9762 35.1215 39.7313 35.8731 40.6625 35.8731H43.0429C43.9743 35.8731 44.7294 35.1215 44.7294 34.1945L44.7198 21.0539ZM14.1383 16.5722C13.8227 17.079 13.3898 17.5033 12.8759 17.8096C11.9803 18.321 10.9049 18.4174 9.93195 18.0734C9.79057 18.0298 9.65596 17.9669 9.53203 17.8863C8.42073 17.2789 7.73007 16.1172 7.73007 14.8553C7.73007 13.5934 8.42073 12.4317 9.53203 11.8243C9.66179 11.7419 9.80303 11.6789 9.95122 11.6373C11.216 11.1947 12.6236 11.5073 13.5793 12.443C14.2512 13.0607 14.6323 13.9304 14.6297 14.8409C14.6287 15.452 14.4587 16.051 14.1383 16.5722Z" fill="#323232"/>
</svg>
