<svg width="175" height="47" viewBox="0 0 175 47" fill="none" xmlns="http://www.w3.org/2000/svg">
<path d="M0.0187531 13.4303L13.5716 9.1751C13.5505 6.50885 13.3464 4.78086 15.1478 2.65918C18.3683 -1.13392 24.1127 -0.766164 27.0799 3.10237C28.5928 5.07318 28.3934 6.81296 28.3957 9.1751L41.9486 13.4303V23.5177H0.0187531V13.4303ZM23.911 9.91062C17.3902 6.53478 11.3527 15.1276 16.9962 20.0028C20.8711 23.3503 27.1362 20.5285 27.1643 15.3987C27.1713 14.1446 26.4207 13.1191 26.2683 12.1242C26.029 10.5731 26.4161 8.62346 26.2284 7.00391C25.6866 2.32914 19.9586 0.254601 16.9188 3.96519C16.1212 4.94116 15.1338 7.13829 16.0532 8.21091L18.0564 8.03646C17.5052 5.28535 20.4207 3.34283 22.7311 4.87516C23.0361 5.07789 23.911 6.27311 23.911 6.50885V9.91062Z" fill="black"/>
<path d="M97.4641 32.4311L100.509 14.6019C101.4 14.7575 103.49 14.2271 104.006 14.972L108.237 27.035L112.366 14.5878L115.736 14.6019L118.546 32.4311L115.476 32.2967L113.51 21.1697L109.624 32.4075L106.945 32.4476L102.622 21.172L100.746 32.4311H97.4664H97.4641Z" fill="black"/>
<path d="M83.0575 14.6019C88.0794 15.2808 88.7502 22.8317 83.8831 24.2296L87.8589 32.4311H84.4625C83.0692 30.3354 82.1286 27.8601 80.869 25.7054C80.6368 25.3093 80.421 24.5455 79.8956 24.6893V32.4311H76.6165V14.6019C78.6313 14.7976 81.1036 14.3379 83.0575 14.6019ZM79.8956 21.6412C81.7392 21.9665 85.1497 21.2239 83.8456 18.7392C83.0739 17.2658 81.2513 17.6972 79.8956 17.6548V21.6435V21.6412Z" fill="black"/>
<path d="M133.07 32.4311H129.674C128.684 31.7192 125.895 24.6893 125.454 24.687C124.922 24.687 124.903 25.1113 124.858 25.4979C124.628 27.5253 124.865 30.4202 125.105 32.4288H121.825V14.6019H128.266C129.833 14.6019 131.602 16.3818 132.024 17.8764C132.883 20.908 131.714 23.3126 128.876 24.5667L133.068 32.4288L133.07 32.4311ZM125.255 17.6854L124.973 17.8716L125.09 21.5374C130.342 22.7044 130.668 16.7259 125.255 17.6854Z" fill="black"/>
<path d="M63.6781 14.1941C67.2997 13.6707 70.9706 14.6915 73.3232 17.5652L71.1137 19.7599C67.7454 15.823 61.2012 16.3228 59.6343 21.6412C57.5303 28.7912 66.5163 32.6362 71.1137 27.2825L73.3349 29.5008C66.5163 36.7334 54.3568 31.9172 56.3435 21.3936C57.0026 17.8952 60.1152 14.7103 63.6805 14.1964L63.6781 14.1941Z" fill="black"/>
<path d="M138.81 14.6019C139.323 14.7457 142.04 19.4346 142.56 20.2338C142.896 20.2762 143.067 19.9745 143.245 19.7482C144.376 18.3148 145.389 16.1602 146.421 14.6019H150.17L144.625 23.1664L150.639 32.4311H147.008C145.537 30.7173 144.524 28.1689 143.105 26.488C142.945 26.2994 142.889 26.0189 142.56 26.0943L138.693 32.4311H134.944L140.785 23.1664L135.411 14.6043H138.807L138.81 14.6019Z" fill="black"/>
<path d="M162.585 14.6019L166.805 27.2707L171.599 14.8329L175 14.6043L168.334 32.4476L165.369 32.292L159.071 14.6019H162.585Z" fill="black"/>
<path d="M1.19155 25.1585C1.06958 32.4453 5.00783 39.6778 11.3409 43.2635C25.1447 51.0807 40.5905 40.1446 40.7781 25.1585H41.9509C42.2441 39.4492 29.1815 50.0505 15.1947 46.2055C6.07273 43.6972 -0.372956 34.5929 0.0164126 25.1585H1.18921H1.19155Z" fill="black"/>
<path d="M94.1849 14.6019H90.9058V32.4311H94.1849V14.6019Z" fill="black"/>
<path d="M156.261 14.6019H152.982V32.4311H156.261V14.6019Z" fill="black"/>
<path d="M21.5677 34.1897C21.5818 34.0153 21.7413 33.8479 21.5677 33.6098L23.9133 33.2326L28.825 42.4007L26.022 43.6902L24.6053 37.5962L23.2261 37.8485L24.5912 43.7892C24.4692 44.2819 22.1095 44.3785 21.5654 44.3927C21.7624 41.0758 21.3003 37.4713 21.5654 34.1874L21.5677 34.1897Z" fill="black"/>
<path d="M13.6021 35.2506L12.5489 34.5504L8.33155 39.2299L6.34248 37.0045L14.925 31.0426L16.8601 32.5466L11.8218 41.7972C11.4911 41.875 9.61224 40.51 9.65212 40.0951L13.5997 35.2506H13.6021Z" fill="black"/>
<path d="M13.5857 27.761L14.2729 29.5433L14.0947 29.9794L5.40893 35.7174L4.23379 33.1407C5.87101 32.5773 7.54108 32.0209 9.14781 31.3679C9.41286 31.2618 10.201 31.1062 10.0579 30.7149L9.49495 29.6093L3.53246 31.7286L3.06334 28.9138L13.5857 27.761Z" fill="black"/>
<path d="M20.1627 33.6051V44.3951L17.3527 44.1593L18.7741 37.9734L17.3597 37.5986L15.9453 43.6902L13.133 42.6317L17.9414 33.3623L18.3589 33.1713L20.1627 33.6051Z" fill="black"/>
<path d="M28.3629 35.2506L32.3012 40.0574L30.1174 41.8113L25.1799 32.6763L26.5216 31.052L35.3856 37.0045L33.4317 38.9824L29.4161 34.5457L28.3629 35.2506Z" fill="black"/>
<path d="M38.9017 28.9138L38.0619 31.7427L32.4536 29.6493L31.8813 31.0096L37.3981 33.1242L36.3215 35.715L27.6921 29.7036L28.513 27.7233L38.9017 28.9138Z" fill="black"/>
<path d="M16.1822 25.1585C15.5653 32.8224 26.3504 32.7894 25.7851 25.1585H26.9579C27.5396 34.3501 14.362 34.3218 15.0094 25.1585H16.1822Z" fill="black"/>
<path d="M13.3699 25.1585V26.3324C9.8468 26.6059 6.34248 27.2165 2.82879 27.5064L2.59657 25.1585H13.3722H13.3699Z" fill="black"/>
<path d="M39.3708 25.1585L39.1386 27.5064L28.5951 26.3324V25.1585H39.3708Z" fill="black"/>
<path d="M18.1338 12.5698C19.7569 10.9432 23.022 11.2001 24.2534 13.2039C26.3129 16.5538 22.8508 20.3587 19.2949 18.8736C16.9023 17.874 16.33 14.3756 18.1338 12.5698ZM22.1987 13.9748C20.4278 12.3506 18.0071 15.1064 19.8062 16.7189C21.6358 18.3573 23.8547 15.493 22.1987 13.9748Z" fill="black"/>
</svg>
