<svg width="200" height="42" viewBox="0 0 200 42" fill="none" xmlns="http://www.w3.org/2000/svg">
<path d="M0.000156791 20.6212C4.20195 20.2018 8.34994 19.2727 12.5497 18.9042C14.6285 19.1784 16.7126 20.2697 18.7608 20.622C19.1299 20.6856 19.1159 20.5241 19.0792 21.0476C16.6538 21.3391 14.3502 22.7339 11.8867 22.7664L0 21.0483L0.000156791 20.6212Z" fill="#232323"/>
<path d="M125.402 14.9631C125.526 14.4902 127.3 14.5212 127.664 14.8455L134.834 23.8239V14.6428H137.406V28.5211C135.83 28.592 135.441 28.7244 134.407 27.5587C132.383 25.2764 130.643 22.3648 128.616 20.0891C128.442 19.8941 128.23 19.6216 127.974 19.5535V28.5211H125.402V14.9631Z" fill="#232323"/>
<path d="M88.5803 21.6337C88.5803 25.5839 85.3655 28.7861 81.3996 28.7861C77.4338 28.7861 74.2189 25.5839 74.2189 21.6337C74.2189 17.6836 77.4338 14.4814 81.3996 14.4814C85.3655 14.4814 88.5803 17.6836 88.5803 21.6337ZM80.3269 17.0393C76.4431 17.6977 76.0509 24.6346 79.6247 25.97C82.1788 26.9244 85.1391 25.718 85.517 22.8495C85.9922 19.2428 84.3111 16.3639 80.3269 17.0393Z" fill="#232323"/>
<path d="M160.345 25.1042L162.474 18.7938C163.035 18.6779 164.37 18.5238 164.743 18.9074L166.667 25.1064C167.004 25.112 168.03 19.4853 168.59 18.9072C168.864 18.6248 170.97 18.6132 171.061 18.7003C171.431 19.0561 168.089 27.2156 168.039 28.5004C167.408 28.4566 166 28.7376 165.589 28.3137C165.079 27.7877 164.237 23.9254 163.781 22.855C163.688 22.637 163.647 22.3554 163.345 22.3295L161.528 28.3132C161.224 28.7434 159.75 28.4245 159.189 28.5321L156.056 18.7003C156.797 18.8048 158.335 18.3732 158.73 19.1317L160.345 25.1042Z" fill="#232323"/>
<path d="M92.6045 28.0942V31.7239H90.0322V18.6997C90.5617 18.7803 92.0355 18.4965 92.2956 18.9006C92.4734 19.1767 92.2626 19.6163 92.4968 19.7666C94.8175 17.6338 97.985 18.0301 98.9794 21.2109C100.045 24.6188 98.4898 29.3632 94.2199 28.7263C93.6166 28.6362 93.2077 28.1137 92.6047 28.0942H92.6045ZM94.0392 20.6636C93.6503 20.7511 92.75 21.4707 92.6416 21.8325C92.4688 22.4087 92.5338 25.5693 92.8422 26.0428C93.294 26.7366 94.8695 26.8036 95.5094 26.3971C96.4796 25.7808 96.755 24.1629 96.6582 23.0955C96.5073 21.431 95.9318 20.238 94.0393 20.6638L94.0392 20.6636Z" fill="#232323"/>
<path d="M193.355 22.3293C193.422 22.3984 193.996 22.3361 194.118 22.1285L196.78 18.8016L199.786 18.7008L196.17 23.0753L200 28.5199L196.994 28.4188C196.395 28.109 194.985 25.1241 194.318 24.4654C194.016 24.1667 193.729 24.2417 193.355 24.2509V28.5211H190.782V14.2158C190.782 14.0831 193.355 14.1439 193.355 14.5361V22.3293Z" fill="#232323"/>
<path d="M181.553 23.6024C181.553 26.4274 179.254 28.7175 176.417 28.7175C173.581 28.7175 171.282 26.4274 171.282 23.6024C171.282 20.7773 173.581 18.4872 176.417 18.4872C179.254 18.4872 181.553 20.7773 181.553 23.6024ZM175.493 20.6581C173.696 21.191 173.698 26.0308 175.493 26.5628C175.832 26.6632 177.009 26.6635 177.348 26.5628C178.991 26.0746 179.063 21.5132 177.492 20.7278C177.141 20.5524 175.872 20.5455 175.493 20.6581Z" fill="#232323"/>
<path d="M119.614 28.5213H117.042V21.5821C117.042 21.3233 116.433 20.6845 116.078 20.6223C114.984 20.4311 114.519 20.8824 113.612 21.2618V28.5213H110.825V18.6996C111.409 18.7878 112.317 18.5561 112.834 18.7273C113.165 18.8366 113.325 19.5551 113.505 19.5515C113.551 19.5506 113.993 19.1395 114.247 19.011C115.652 18.2993 117.613 18.1641 118.763 19.4407C118.937 19.6332 119.614 21.0061 119.614 21.1549V28.5211L119.614 28.5213Z" fill="#232323"/>
<path d="M109.11 24.0374H102.894C102.774 26.0029 104.127 26.8358 105.989 26.5845C107.206 26.4201 107.933 25.0364 108.905 26.4833C109.528 27.4104 107.932 28.1539 107.18 28.4136C103.41 29.7159 99.9337 27.2956 100.095 23.2835C100.371 16.4227 110.656 17.0975 109.11 24.0372L109.11 24.0374ZM106.967 22.3293C106.712 19.6941 103.102 19.8118 102.894 22.3293H106.967Z" fill="#232323"/>
<path d="M69.4535 24.0374H63.0226C63.4857 26.0883 64.2983 26.9487 66.5114 26.5517C67.6105 26.3545 68.0686 25.1076 69.0247 26.2787C69.6044 26.9886 69.534 27.2372 68.799 27.7631C65.1221 30.3937 60.2531 27.8842 60.4382 23.2838C60.7142 16.4231 70.9989 17.0978 69.4533 24.0376L69.4535 24.0374ZM67.3099 22.3293C67.0552 19.6941 63.4456 19.8118 63.2371 22.3293H67.3099Z" fill="#232323"/>
<path d="M141.693 24.0374C141.543 24.1745 141.874 25.2617 142.028 25.5191C142.661 26.5788 143.862 26.7628 145.009 26.5912C145.803 26.4723 146.718 25.3657 147.427 26.0172C147.527 26.1093 148.14 27.0181 148.119 27.116C148.009 27.6352 145.901 28.5294 145.349 28.6392C140.984 29.5063 138.594 26.3488 139.135 22.2363C139.464 19.7324 142.197 18.1843 144.575 18.4996C147.03 18.825 148.471 21.1286 148.128 23.5075C148.102 23.6894 147.943 24.0377 147.803 24.0377H141.693V24.0374ZM145.766 22.3293C145.78 19.7052 142.054 19.8152 141.693 22.3293H145.766Z" fill="#232323"/>
<path d="M153.055 15.7104V18.6995C153.055 18.8278 155.586 18.5117 155.629 18.8173L155.628 20.6219L153.055 20.6211V26.2792C153.055 27.0254 154.679 26.2123 154.772 26.2669C155.026 26.4164 155.826 27.5679 155.825 27.7769C155.824 28.0271 154.282 28.632 153.972 28.6863C152.443 28.9538 150.658 28.4471 150.476 26.7131C150.379 25.7921 150.701 20.834 150.483 20.6203C150.271 20.4126 149.081 21.1578 148.972 19.8831C148.862 18.5828 148.975 19.0423 149.903 18.8628C151.059 18.6389 150.662 16.6427 151.147 15.7315L153.055 15.7104Z" fill="#232323"/>
<path d="M55.2465 18.5338C56.4003 18.3374 57.6784 18.5114 58.7172 19.038C59.8346 19.6045 60.11 19.9777 59.1693 20.9455C58.4433 21.6924 58.0235 20.8206 57.2994 20.6645C55.0715 20.1845 54.1544 21.4387 54.129 23.504C54.1041 25.5386 54.8828 26.9363 57.121 26.5914C57.7268 26.498 58.4497 25.6892 58.8143 25.7685C58.9622 25.8007 59.74 26.5788 59.7877 26.7404C60.0751 27.7108 57.6373 28.6235 56.9006 28.7219C50.2523 29.6095 49.5854 19.4972 55.2465 18.5338Z" fill="#232323"/>
<path d="M49.5178 14.6326H46.5167V28.5211H49.5178V14.6326Z" fill="#232323"/>
<path d="M20.7927 0.123989C20.8833 1.4314 21.0477 2.75592 21.2443 4.05157C21.6147 6.4921 22.3192 9.37692 22.4894 11.7779C22.667 14.2817 21.2112 16.6094 20.7924 19.0238C20.7287 19.3913 20.8906 19.3775 20.365 19.341C20.0723 16.9251 18.672 14.6307 18.6395 12.177C19.0018 8.36067 20.205 4.23982 20.3664 0.443081C20.3815 0.0901077 20.5544 -0.162155 20.7927 0.123989Z" fill="#232323"/>
<path d="M41.3715 20.6219C41.6882 20.8883 41.3874 21.02 41.0493 21.0421C37.2025 21.2944 33.0355 22.5833 29.2711 22.7664C26.979 22.8779 24.3831 21.234 22.0786 21.0476C22.0419 20.5241 22.0279 20.6856 22.3971 20.622C24.7951 20.2094 27.2068 18.7207 29.671 18.9325C33.0274 19.2208 36.8218 20.1004 40.2116 20.6027C40.5023 20.6459 41.323 20.5811 41.3715 20.6219Z" fill="#232323"/>
<path d="M20.7928 22.3284C21.0855 24.7443 22.4858 27.0386 22.5183 29.4923C22.156 33.3087 20.9528 37.4295 20.7914 41.2263C20.7763 41.5793 20.6036 41.8315 20.3653 41.5454C20.2746 40.238 20.1102 38.9134 19.9136 37.6178C19.5433 35.1773 18.8387 32.2924 18.6685 29.8914C18.4909 27.3877 19.9467 25.0599 20.3656 22.6456C20.4293 22.278 20.2672 22.2918 20.7928 22.3284Z" fill="#232323"/>
<path d="M19.5065 19.7666C19.381 19.888 18.3183 19.2952 18.0739 19.1664C16.502 18.3379 14.9132 17.4915 13.3938 16.5685L5.78809 6.31703L7.69822 7.50914C10.6485 10.048 14.6283 11.8352 16.9737 14.9244C17.1003 15.5551 19.7032 19.5763 19.5067 19.7664L19.5065 19.7666Z" fill="#232323"/>
<path d="M35.3701 35.3525C35.1625 35.5429 33.8156 34.257 33.4599 34.1604C30.5097 31.6215 26.5299 29.8343 24.1844 26.7451C24.0578 26.1145 21.4549 22.0932 21.6515 21.9031C21.777 21.7817 22.8396 22.3745 23.0841 22.5033C24.656 23.3318 26.2448 24.1781 27.7642 25.1012L35.3699 35.3526L35.3701 35.3525Z" fill="#232323"/>
<path d="M21.6514 19.7666C21.5295 19.6415 22.1247 18.5831 22.2539 18.3396C23.0866 16.7721 23.9713 15.2129 24.8584 13.6743L35.1543 6.10226L33.9574 8.00487C31.4085 10.9435 29.6141 14.9075 26.5127 17.2437C25.8795 17.3698 21.8423 19.9624 21.6514 19.7666Z" fill="#232323"/>
<path d="M19.5065 21.9029C19.6284 22.028 19.0332 23.0864 18.904 23.3299C18.0713 24.8974 17.1866 26.4566 16.2995 27.9953L6.00366 35.5672L7.20048 33.6646C9.74942 30.726 11.5438 26.762 14.6452 24.4258C15.2784 24.2997 19.3156 21.7071 19.5065 21.9029Z" fill="#232323"/>
<path d="M182.851 18.6997C182.922 18.6289 184.639 18.6615 184.861 18.7257C185.418 18.8862 185.067 19.7727 185.317 19.7685C185.698 19.762 186.496 18.7004 187.288 18.5305C187.677 18.4472 189.072 18.4557 189.259 18.7229C189.377 18.8918 189.141 20.9463 189.062 21.0431C188.922 21.2155 186.894 20.6503 186.06 21.5751C185.951 21.6957 185.423 22.5872 185.423 22.6495V28.5211H182.851V18.6995L182.851 18.6997Z" fill="#232323"/>
</svg>
