<svg width="144" height="49" viewBox="0 0 144 49" fill="none" xmlns="http://www.w3.org/2000/svg">
<path d="M57.0671 32.3895H62.1148V24.8179H57.4878V21.3126H65.9006V32.5297H70.2473V36.0351H57.2074V32.5297L57.0671 32.3895ZM66.7419 16.8257C66.7419 17.2464 66.7419 17.5268 66.4615 17.9474C66.4615 18.2279 66.1811 18.6485 65.9006 18.7887C65.6202 19.0691 65.3398 19.2094 64.9191 19.3496C64.2181 19.63 63.3768 19.63 62.6757 19.3496C62.3953 19.2094 62.1148 19.0691 61.8344 18.7887C61.554 18.5083 61.4138 18.2279 61.2736 17.9474C60.9931 17.2464 60.9931 16.4051 61.2736 15.704C61.2736 15.4236 61.554 15.0029 61.8344 14.8627C62.1148 14.5823 62.3953 14.4421 62.6757 14.3019C63.3768 14.0214 64.2181 14.0214 64.9191 14.3019C65.1996 14.4421 65.6202 14.5823 65.9006 14.8627C66.1811 15.1431 66.3213 15.4236 66.4615 15.704C66.6017 15.9844 66.7419 16.4051 66.7419 16.8257Z" fill="#232323"/>
<path d="M75.1548 15.1431H88.3349V18.9289H79.0808V23.6962H87.9143V27.482H79.0808V32.2493H88.6154V36.035H75.1548V15.2833V15.1431Z" fill="#232323"/>
<path d="M102.917 21.3125H106.984L103.478 28.183V28.7439L107.264 36.035H102.917L100.113 30.2863H99.5522L96.7479 36.035H92.4012L96.187 28.7439V28.183L92.5415 21.3125H96.7479L99.412 26.7809H99.9728L102.637 21.3125H102.917Z" fill="#232323"/>
<path d="M114.695 29.8656C114.695 30.2863 114.695 30.7069 114.976 31.1276C115.116 31.5482 115.396 31.8286 115.817 32.1091C116.097 32.3895 116.518 32.6699 116.939 32.6699C117.359 32.8101 117.78 32.9503 118.341 32.9503C119.042 32.9503 119.883 32.9503 120.444 32.3895C120.865 32.1091 121.285 31.6884 121.566 31.2678L124.791 33.0906C124.51 33.5112 124.37 33.9318 124.09 34.2123C123.809 34.6329 123.248 35.0536 122.828 35.334C122.267 35.7546 121.706 36.0351 121.005 36.1753C120.164 36.4557 119.322 36.4557 118.481 36.4557C117.499 36.4557 116.378 36.3155 115.396 35.8948C114.555 35.6144 113.714 35.0536 113.013 34.3525C112.312 33.6514 111.751 32.8101 111.47 31.8286C111.05 30.7069 110.909 29.7254 110.909 28.4635C110.909 27.2016 111.05 26.2201 111.47 25.2386C111.891 24.3973 112.312 23.556 113.013 22.8549C113.714 22.1539 114.555 21.7332 115.396 21.3126C116.378 20.8919 117.359 20.7517 118.341 20.7517C119.462 20.7517 120.584 20.8919 121.566 21.4528C122.407 21.8734 123.248 22.4343 123.809 23.1354C124.37 23.8364 124.791 24.5375 125.071 25.3788C125.351 26.0799 125.492 26.9211 125.492 27.7624V29.7254H114.695V29.8656ZM118.201 24.2571C117.359 24.2571 116.518 24.5375 115.817 24.9581C115.256 25.3788 114.835 25.9396 114.695 26.6407H121.706C121.706 25.9396 121.145 25.3788 120.584 24.9581C119.883 24.5375 119.042 24.2571 118.201 24.2571Z" fill="#232323"/>
<path d="M144 30.5667C143.72 32.2493 142.878 33.6514 141.616 34.7731C140.354 35.8948 138.672 36.3155 136.569 36.3155C134.465 36.3155 134.465 36.1753 133.484 35.7546C132.502 35.4742 131.801 34.9133 130.96 34.3525C130.259 33.6514 129.698 32.9503 129.278 31.9688C128.857 30.9873 128.717 29.8656 128.717 28.7439V28.4635C128.717 27.3418 128.857 26.2201 129.278 25.2386C129.698 24.2571 130.259 23.556 130.96 22.8549C131.661 22.1539 132.502 21.593 133.484 21.3126C134.465 20.8919 135.447 20.7517 136.569 20.7517C138.672 20.7517 140.354 21.3126 141.616 22.2941C142.878 23.4158 143.72 24.8179 144 26.5005L140.354 27.482C140.354 26.6407 139.794 25.7994 139.233 25.2386C138.672 24.5375 137.69 24.2571 136.569 24.2571C135.447 24.2571 135.587 24.2571 135.026 24.5375C134.606 24.6777 134.185 24.9581 133.764 25.3788C133.344 25.7994 133.063 26.2201 132.923 26.7809C132.643 27.3418 132.643 27.9026 132.643 28.6037C132.643 29.3048 132.643 30.0058 132.923 30.5667C133.063 30.9873 133.344 31.408 133.764 31.8286C134.185 32.1091 134.606 32.3895 135.026 32.5297C135.447 32.6699 136.008 32.8101 136.569 32.8101C137.69 32.8101 138.532 32.5297 139.233 31.9688C139.794 31.2678 140.354 30.5667 140.354 29.5852L144 30.5667Z" fill="#232323"/>
<path d="M20.6116 9.67478C16.966 10.0954 14.3019 13.1801 14.5824 16.9659C14.5824 17.9474 14.1617 18.7887 13.3204 19.3496C12.8998 19.63 12.4791 19.7702 11.9183 19.7702C11.3574 19.7702 11.077 19.63 10.6564 19.3496C9.53464 18.6485 8.27271 18.2278 7.01079 18.2278C5.74886 18.2278 6.44993 18.2278 6.1695 18.2278C2.52393 18.7887 7.6553e-05 22.2941 0.560933 25.9396C1.12179 29.1646 3.78586 31.5482 7.01079 31.6884C7.29121 31.6884 7.43143 31.6884 7.71186 31.6884C10.9368 31.408 13.4606 28.7439 13.8813 25.519C13.8813 25.0983 13.8813 24.8179 13.8813 24.3973C13.8813 23.4158 14.3019 22.5745 15.1432 22.0136C15.5639 21.7332 15.9845 21.593 16.5454 21.593C16.966 21.593 17.5269 21.593 17.8073 22.0136C18.929 22.7147 20.1909 22.9951 21.4529 22.9951C21.7333 22.9951 22.0137 22.9951 22.2941 22.9951C26.0799 22.4343 28.6038 19.0691 28.1831 15.4236C27.7625 12.0584 24.9582 9.53456 21.5931 9.53456C21.3126 9.53456 21.1724 9.53456 20.892 9.53456" fill="#232323"/>
<path d="M34.9134 18.2278C31.2678 18.6485 28.6038 21.7332 28.8842 25.519C28.8842 26.5005 28.4635 27.3418 27.6222 27.9026C27.2016 28.1831 26.781 28.3233 26.2201 28.3233C25.7995 28.3233 25.3788 28.1831 24.9582 27.9026C21.8735 25.9396 17.667 26.7809 15.704 30.0058C14.8628 31.2678 14.5823 32.6699 14.7225 34.2123C14.7225 35.1938 14.3019 36.0351 13.4606 36.5959C13.04 36.8763 12.6193 37.0165 12.0585 37.0165C11.4976 37.0165 11.2172 36.8763 10.7965 36.5959C9.67483 35.8948 8.4129 35.4742 7.15098 35.4742C5.88905 35.4742 6.59012 35.4742 6.30969 35.4742C2.66412 36.035 5.07798e-05 39.4002 0.560908 43.186C0.98155 46.4109 3.78583 48.9348 7.01076 48.9348C7.29119 48.9348 7.4314 48.9348 7.71183 48.9348C10.9368 48.6543 13.4606 45.9903 13.741 42.7653C13.741 42.3447 13.741 42.0643 13.741 41.6436C13.741 40.6621 14.1617 39.8208 15.003 39.26C15.4236 38.9795 15.8443 38.8393 16.4051 38.8393C16.8258 38.8393 17.3866 38.8393 17.667 39.26C18.7888 39.961 20.0507 40.3817 21.3126 40.3817C22.5745 40.3817 21.8735 40.3817 22.0137 40.3817C25.6593 39.961 28.3233 36.8763 28.0429 33.2308C28.0429 31.8286 29.0244 30.5667 30.4265 30.5667H30.5668C30.9874 30.5667 31.5482 30.5667 31.8287 30.9873C32.9504 31.6884 34.2123 32.1091 35.4742 32.1091C36.7362 32.1091 36.0351 32.1091 36.3155 32.1091C40.1013 31.5482 42.6252 28.1831 42.2045 24.5375C41.7839 21.1723 38.9796 18.6485 35.6145 18.6485C35.334 18.6485 35.1938 18.6485 35.0536 18.6485" fill="#232323"/>
<path d="M11.9182 11.9182L11.6378 10.5161C12.0584 10.3759 12.3388 9.815 12.1986 9.25414L13.3203 8.55307C13.3203 8.55307 13.3203 8.55307 13.3203 8.69328L11.9182 11.9182ZM11.9182 6.73028L13.0399 7.43135C13.0399 7.71178 13.0399 7.99221 13.0399 8.13242L11.9182 8.8335C11.6378 8.55307 11.0769 8.41285 10.6563 8.8335L10.0954 8.27264C10.2356 7.99221 10.2356 7.57157 10.0954 7.29114L10.6563 6.73028C10.7965 6.73028 11.0769 6.8705 11.2171 6.8705C11.4976 6.8705 11.778 6.8705 11.9182 6.59007M9.11392 4.34664H9.25414L10.3759 5.46835C10.2356 5.74878 10.0954 6.02921 10.3759 6.30964C10.3759 6.30964 10.3759 6.30964 10.3759 6.44985L9.81499 7.01071C9.53456 6.73028 8.97371 6.73028 8.69328 7.01071L7.71178 6.02921C7.99221 5.74878 7.99221 5.18793 7.71178 4.9075L8.27264 4.34664C8.55307 4.48685 8.83349 4.48685 9.11392 4.34664ZM12.0584 6.44985C12.1986 6.02921 12.0584 5.46835 11.4976 5.18793L11.778 3.78578C11.778 3.78578 11.778 3.78578 11.9182 3.78578L13.1801 7.15092C13.1801 7.15092 13.1801 7.15092 13.0399 7.15092L12.0584 6.44985ZM2.52385 3.78578C2.52385 3.78578 2.9445 3.50536 3.08471 3.22493L4.34664 3.50536C4.34664 3.64557 4.34664 3.926 4.34664 4.06621L3.22493 5.18793C3.08471 5.18793 2.9445 5.04771 2.66407 5.04771L2.38364 3.78578H2.52385ZM9.53457 4.06621C9.53457 3.926 9.67478 3.64557 9.67478 3.50536L10.9367 3.22493C10.9367 3.50536 11.2171 3.64557 11.4976 3.64557L11.2171 5.04771C11.2171 5.04771 10.9367 5.04771 10.7965 5.04771L9.67478 3.78578L9.53457 4.06621ZM7.29114 1.82279L7.99221 2.9445C7.71178 3.22493 7.71178 3.78578 7.99221 4.20643L7.43136 4.9075C7.15093 4.76728 6.73028 4.76728 6.44985 4.9075L5.889 4.34664C6.16942 3.926 6.16942 3.36514 5.889 3.08471L6.59007 1.963C6.59007 1.963 6.73028 1.963 6.8705 1.963C6.8705 1.963 7.15092 1.963 7.29114 1.963M3.08471 2.9445C3.08471 2.80428 6.16943 1.40214 6.16943 1.40214C6.16943 1.40214 6.16943 1.40214 6.30964 1.54236L5.60857 2.66407C5.18793 2.38364 4.62707 2.66407 4.34664 3.08471L3.08471 2.80428V2.9445ZM7.57157 1.54236C7.57157 1.54236 7.57157 1.54236 7.57157 1.40214L10.7965 2.66407C10.7965 2.80428 9.53457 3.22493 9.53457 3.22493C9.25414 2.80428 8.8335 2.52386 8.27264 2.80428L7.57157 1.68257V1.54236ZM6.8705 0C6.44985 0 6.02921 0.280428 6.02921 0.841285C6.02921 0.841285 6.02921 1.12171 6.02921 1.26193L2.9445 2.52386C2.9445 2.52386 2.9445 2.52386 2.80428 2.38364C2.38364 2.10321 1.68257 2.24343 1.40214 2.66407C1.26193 2.9445 1.26193 3.36514 1.40214 3.78578C0.701071 4.76728 0.140214 5.889 0 7.15092V7.852C0 11.6378 3.08471 14.7225 6.8705 14.7225C7.15092 14.7225 7.29114 14.7225 7.57157 14.7225C8.8335 14.5823 10.0954 14.1616 11.0769 13.3204C11.3574 13.6008 11.9182 13.6008 12.1986 13.3204C12.4791 13.0399 12.4791 12.4791 12.1986 12.1986L13.6008 8.97371C14.1616 8.97371 14.5823 8.69328 14.7225 8.27264C14.7225 7.852 14.5823 7.29114 14.0214 7.15092C14.0214 7.15092 13.8812 7.15092 13.741 7.15092C13.6008 7.15092 13.741 7.15092 13.6008 7.15092L12.3389 3.78578C12.8997 3.64557 13.0399 3.08471 12.8997 2.52386C12.7595 1.963 12.1986 1.82278 11.6378 1.963C11.6378 1.963 11.3574 1.963 11.3574 2.10321C11.3574 2.10321 11.0769 2.24343 11.0769 2.38364L7.852 1.12171C7.852 0.560857 7.57157 0.140214 7.15093 0C7.15093 0 7.15092 0 7.01071 0H6.8705Z" fill="#232323"/>
</svg>
