<svg width="200" height="31" viewBox="0 0 200 31" fill="none" xmlns="http://www.w3.org/2000/svg">
<path d="M13.3428 5.16495C14.769 5.16495 15.9253 4.00873 15.9253 2.58247C15.9253 1.15621 14.769 0 13.3428 0C11.9165 0 10.7603 1.15621 10.7603 2.58247C10.7603 4.00873 11.9165 5.16495 13.3428 5.16495Z" fill="#232323"/>
<path d="M8.03437 16.7861C11.7646 15.9253 12.482 21.2337 9.32561 21.8076C6.16925 22.3814 5.30843 17.36 8.03437 16.7861Z" fill="#232323"/>
<path d="M17.2165 24.1031C18.6427 24.1031 19.7989 22.9469 19.7989 21.5206C19.7989 20.0943 18.6427 18.9381 17.2165 18.9381C15.7902 18.9381 14.634 20.0943 14.634 21.5206C14.634 22.9469 15.7902 24.1031 17.2165 24.1031Z" fill="#232323"/>
<path d="M11.0472 13.4863C12.4735 13.4863 13.6297 12.33 13.6297 10.9038C13.6297 9.47752 12.4735 8.3213 11.0472 8.3213C9.62096 8.3213 8.46475 9.47752 8.46475 10.9038C8.46475 12.33 9.62096 13.4863 11.0472 13.4863Z" fill="#232323"/>
<path d="M2.58247 10.9038C4.00873 10.9038 5.16494 9.74756 5.16494 8.3213C5.16494 6.89504 4.00873 5.73883 2.58247 5.73883C1.15621 5.73883 0 6.89504 0 8.3213C0 9.74756 1.15621 10.9038 2.58247 10.9038Z" fill="#232323"/>
<path d="M6.59962 30.2723C8.02588 30.2723 9.1821 29.1161 9.1821 27.6898C9.1821 26.2636 8.02588 25.1074 6.59962 25.1074C5.17336 25.1074 4.01715 26.2636 4.01715 27.6898C4.01715 29.1161 5.17336 30.2723 6.59962 30.2723Z" fill="#232323"/>
<path d="M29.9854 3.58676L33.1417 3.29982C33.2852 3.29982 33.5721 3.8737 33.5721 3.8737V23.5292C32.7113 24.1031 30.9897 23.9596 29.9854 23.5292V3.44329V3.58676Z" fill="#232323"/>
<path d="M75.6091 17.7904H66.4269C65.8531 21.0902 68.1486 21.8075 71.018 21.2337C73.8874 20.6598 74.3178 18.7947 75.3221 22.0945C72.4527 25.3943 64.5618 25.1074 63.2706 20.5163C61.9793 15.9252 62.9836 13.4862 63.2706 12.3385C64.5618 8.89518 69.0094 8.03436 72.1658 9.18212C75.3221 10.3299 76.1829 14.921 75.4656 17.9338L75.6091 17.7904ZM72.5962 15.3514C73.457 10.3299 65.5661 10.3299 66.4269 15.3514H72.5962Z" fill="#232323"/>
<path d="M147.201 17.7904H138.019C137.445 21.0902 139.74 21.8075 142.61 21.2337C145.479 20.6598 145.91 18.7947 146.914 22.0945C144.045 25.3943 136.154 25.1074 134.862 20.5163C133.571 15.9252 134.576 13.4862 134.862 12.3385C136.154 8.89518 140.601 8.03436 143.758 9.18212C146.914 10.3299 147.775 14.921 147.057 17.9338L147.201 17.7904ZM138.019 15.3514H144.188C145.049 10.3299 137.158 10.1864 138.019 15.3514Z" fill="#232323"/>
<path d="M92.6821 17.7904C91.9647 22.6684 97.7035 21.6641 100.429 19.9424L101.577 21.951C98.5644 25.6813 90.0996 25.2508 89.3822 19.799C88.6649 14.3471 89.0953 13.1993 89.9561 11.6211C92.1082 7.17354 101.864 8.17783 101.864 13.6297V17.9338H92.6821V17.7904ZM92.6821 15.3514H98.8513C99.4252 10.3299 91.9647 10.1864 92.6821 15.3514Z" fill="#232323"/>
<path d="M47.3453 23.9596V14.3471L46.7714 12.9124C45.6237 11.3342 42.6108 11.7646 41.0326 11.9081V24.1031H37.7328V10.0429C43.4716 8.03436 50.0713 7.74742 50.6451 15.3514C51.219 22.9553 50.9321 22.5249 50.6451 23.5292C50.3582 24.5335 48.3496 23.9596 47.3453 24.1031V23.9596Z" fill="#232323"/>
<path d="M105.164 10.3299C108.177 8.03436 115.637 8.03436 117.216 11.9081C118.794 15.7818 117.789 13.9167 117.789 14.0601V23.9596L114.633 23.6727C113.772 18.6512 117.359 9.32559 108.464 11.9081V23.8161C108.32 23.8161 105.164 23.8161 105.164 23.8161V10.1864V10.3299Z" fill="#232323"/>
<path d="M132.423 10.1864L131.132 12.4819C129.411 11.7646 126.398 10.7603 124.963 12.4819C123.528 14.2036 124.389 17.9338 124.533 19.0816C124.963 22.3814 129.267 21.3771 131.419 20.3728L132.997 22.6684C128.98 25.3943 121.95 25.1074 121.233 19.2251C120.515 13.3428 121.089 15.4948 121.233 14.0601C121.663 8.03435 128.119 7.46047 132.567 10.0429L132.423 10.1864Z" fill="#232323"/>
<path d="M57.5318 23.9596H54.6623L54.3754 23.5292V6.88659C54.8058 4.878 56.8144 3.15635 58.823 3.01288C61.9793 2.58247 61.6924 3.29982 61.5489 6.02576C58.823 5.16494 57.3883 6.59965 57.5318 9.32559H61.262V12.195H57.8187L57.5318 12.4819V24.1031V23.9596Z" fill="#232323"/>
<path d="M175.321 3.44328V10.0429C179.195 8.17782 184.934 8.60823 185.651 13.7732C186.368 18.9381 185.938 19.6555 185.364 21.2337C183.786 25.3943 177.33 24.9639 174.03 23.2422V3.58675H175.465L175.321 3.44328ZM175.321 11.3342V22.5249C177.617 22.8118 180.917 23.6727 182.782 22.2379C184.647 20.8032 184.647 14.9209 183.929 12.7689C182.782 9.46905 177.76 9.61252 175.321 11.4776V11.3342Z" fill="#232323"/>
<path d="M87.6606 11.6211H83.3565C83.213 11.6211 82.4956 12.0515 82.3522 12.195V23.9596H79.0524V9.89948C81.6348 8.75171 84.5042 8.46477 87.3736 9.03865C88.091 9.32559 87.6606 10.9038 87.8041 11.6211H87.6606Z" fill="#232323"/>
<path d="M169.582 23.3857C166.139 24.2466 160.113 25.5378 158.248 21.3771C155.666 15.4948 164.13 14.0601 168.148 15.3514C168.722 9.18213 163.557 9.03866 159.109 11.1907L158.679 10.043C161.261 8.60825 166.139 7.8909 168.148 10.3299C170.156 12.7689 169.008 19.799 169.439 23.3857H169.582ZM168.148 22.5249V17.073C165.709 15.9253 159.252 15.7818 159.252 19.6555C159.252 23.5292 165.422 23.0988 168.148 22.5249Z" fill="#232323"/>
<path d="M199.281 10.1864L198.42 11.3342C195.981 9.46906 188.951 9.32559 190.386 13.9167C191.82 18.5077 200.142 15.2079 199.998 20.3728C199.855 25.5378 191.103 25.5378 188.664 22.238L188.951 21.3771C189.668 21.3771 190.099 22.0945 190.386 22.238C192.681 23.2423 198.133 23.6727 198.42 20.2294C198.707 16.7861 188.807 18.2208 188.807 12.7689C188.807 7.317 196.124 8.3213 199.137 10.0429L199.281 10.1864Z" fill="#232323"/>
<path d="M152.222 3.44328V20.8032L152.94 22.3814C153.657 23.0988 155.522 22.9553 156.527 22.9553V24.1031C154.231 25.2508 150.931 23.2422 150.931 20.8032V3.44328H152.366H152.222Z" fill="#232323"/>
</svg>
