<?xml version="1.0" encoding="UTF-8"?>
<svg id="Layer_2" data-name="Layer 2" xmlns="http://www.w3.org/2000/svg" viewBox="0 0 767.83 356.4">
  <g id="Layer_2-2" data-name="Layer 2">
    <g>
      <g id="_0kdOgs.tif" data-name="0kdOgs.tif">
        <g>
          <path d="M767.83,0v171.07l-7.24-20.55c-33.5-68.7-130.3-74.61-170.71-9.01l-13.26,34.05V0h191.2Z"/>
          <path d="M576.62,190.57h-267.99l15.03-5.28c22.39-9.2,39.62-25.56,51-46.7l9.25-26.05v73.53l3.75-19.52c32.38-106,183.67-86.43,188.96,24.02Z"/>
          <path d="M143.03,0v106.54c-50.28-25.11-111.21-6.81-135.28,44.48l-7.74,21.54V0h143.03Z"/>
          <path d="M383.91,0v79.53l-6.38-19.9c-8.52-20.51-22.73-37.2-42.29-47.88l-29.62-11.75h78.29Z"/>
          <path d="M271,0l-28.12,10.24c-20.16,11.41-35.99,28.35-44.87,49.81l-5.3,14.98V0h78.29Z"/>
          <path d="M192.71,115.55l8.22,22.57c9.47,17.48,22.02,31.82,39.5,41.66l26.05,10.8h-73.77v-75.03Z"/>
        </g>
      </g>
      <g>
        <path d="M76.1,322.05c0,4.94-.9,9.5-2.71,13.68-1.81,4.19-4.33,7.82-7.55,10.89-3.23,3.07-7.09,5.47-11.59,7.19s-9.44,2.58-14.81,2.58-10.17-.86-14.67-2.58-8.36-4.12-11.59-7.19c-3.23-3.07-5.74-6.7-7.55-10.89-1.81-4.19-2.71-8.75-2.71-13.68s.9-9.5,2.71-13.68c1.81-4.19,4.33-7.82,7.55-10.89,3.23-3.07,7.09-5.47,11.59-7.19,4.5-1.72,9.39-2.58,14.67-2.58s10.31.86,14.81,2.58c4.5,1.72,8.36,4.12,11.59,7.19,3.23,3.07,5.74,6.7,7.55,10.89,1.81,4.19,2.71,8.75,2.71,13.68ZM65.54,322.05c0-3.63-.61-7.05-1.83-10.26-1.22-3.21-2.96-6-5.21-8.38-2.25-2.37-4.99-4.26-8.21-5.66-3.23-1.4-6.84-2.09-10.85-2.09s-7.6.7-10.78,2.09c-3.18,1.4-5.89,3.28-8.14,5.66-2.25,2.37-3.98,5.17-5.21,8.38-1.22,3.21-1.83,6.63-1.83,10.26s.61,7.05,1.83,10.26c1.22,3.21,2.96,6,5.21,8.38,2.25,2.37,4.96,4.24,8.14,5.59,3.18,1.35,6.77,2.02,10.78,2.02s7.62-.68,10.85-2.02,5.96-3.21,8.21-5.59c2.25-2.37,3.98-5.17,5.21-8.38,1.22-3.21,1.83-6.63,1.83-10.26Z"/>
        <path d="M146.49,304.32c-1.66-2.51-4.08-4.58-7.26-6.21-3.18-1.63-6.63-2.44-10.34-2.44-4.01,0-7.63.68-10.85,2.02-3.23,1.35-5.99,3.21-8.28,5.59-2.3,2.37-4.06,5.17-5.28,8.38-1.22,3.21-1.83,6.68-1.83,10.4s.61,7.17,1.83,10.33c1.22,3.17,2.96,5.93,5.21,8.31,2.25,2.37,4.99,4.24,8.21,5.59,3.23,1.35,6.84,2.02,10.85,2.02,4.4,0,8.11-.79,11.15-2.37,3.03-1.58,5.52-3.63,7.48-6.15l7.48,5.31c-2.93,3.44-6.53,6.19-10.78,8.24-4.25,2.05-9.36,3.07-15.33,3.07-5.57,0-10.61-.86-15.1-2.58-4.5-1.72-8.34-4.12-11.51-7.19-3.18-3.07-5.65-6.7-7.41-10.89s-2.64-8.75-2.64-13.68.88-9.5,2.64-13.68,4.23-7.82,7.41-10.89c3.18-3.07,7.01-5.47,11.51-7.19,4.5-1.72,9.53-2.58,15.1-2.58,4.59,0,9.26.96,14,2.86,4.74,1.91,8.58,4.73,11.51,8.45l-7.77,5.31Z"/>
        <path d="M232.43,320.1v2.09c0,.75-.05,1.54-.15,2.37h-56.9c.1,3.26.78,6.33,2.05,9.22,1.27,2.89,3.03,5.4,5.28,7.54,2.25,2.14,4.89,3.84,7.92,5.1,3.03,1.26,6.31,1.89,9.83,1.89,5.18,0,9.65-1.14,13.42-3.42,3.76-2.28,6.62-4.91,8.58-7.89l7.48,5.59c-4.11,4.94-8.63,8.47-13.57,10.61-4.94,2.14-10.24,3.21-15.91,3.21-5.08,0-9.8-.86-14.15-2.58-4.35-1.72-8.09-4.12-11.22-7.19-3.13-3.07-5.6-6.7-7.41-10.89-1.81-4.19-2.71-8.75-2.71-13.68s.88-9.5,2.64-13.68,4.2-7.82,7.33-10.89c3.13-3.07,6.79-5.47,11-7.19,4.2-1.72,8.75-2.58,13.64-2.58,5.38,0,10.12.86,14.23,2.58,4.11,1.72,7.53,4.05,10.27,6.98,2.74,2.93,4.81,6.35,6.23,10.26,1.42,3.91,2.13,8.1,2.13,12.57ZM222.31,317.02c-.29-6.14-2.37-11.24-6.23-15.29-3.86-4.05-9.36-6.07-16.5-6.07-3.32,0-6.4.58-9.24,1.75-2.84,1.17-5.33,2.75-7.48,4.75-2.15,2-3.86,4.28-5.13,6.84-1.27,2.56-2,5.24-2.2,8.03h46.78Z"/>
        <path d="M295.78,312.43c0-5.64-1.56-9.84-4.69-12.61-3.13-2.77-7.68-4.16-13.64-4.16-4.11,0-7.92.7-11.44,2.09-3.52,1.4-6.5,3.26-8.95,5.59l-5.57-6.28c2.83-2.7,6.57-4.93,11.22-6.7,4.64-1.77,9.9-2.65,15.76-2.65,3.71,0,7.19.49,10.41,1.47,3.23.98,6.06,2.44,8.51,4.4,2.44,1.96,4.35,4.42,5.72,7.4,1.37,2.98,2.05,6.47,2.05,10.47v28.63c0,2.51.1,5.12.29,7.82.2,2.7.49,4.98.88,6.84h-8.95c-.29-1.58-.54-3.3-.73-5.17-.2-1.86-.29-3.68-.29-5.45h-.29c-3.13,4.38-6.67,7.52-10.63,9.43-3.96,1.91-8.73,2.86-14.3,2.86-2.64,0-5.35-.35-8.14-1.05-2.79-.7-5.33-1.84-7.63-3.43-2.3-1.59-4.2-3.64-5.72-6.16-1.52-2.52-2.27-5.6-2.27-9.25,0-5.04,1.34-9.04,4.03-11.98,2.69-2.94,6.28-5.14,10.78-6.58,4.5-1.45,9.65-2.38,15.47-2.8,5.82-.42,11.85-.63,18.11-.63v-2.08ZM292.85,322.05c-4.11,0-8.24.16-12.39.49-4.16.33-7.92.98-11.29,1.96-3.37.98-6.14,2.4-8.29,4.26-2.15,1.86-3.23,4.33-3.23,7.4,0,2.33.46,4.28,1.39,5.87.93,1.58,2.17,2.86,3.74,3.84,1.56.98,3.3,1.68,5.2,2.09,1.91.42,3.84.63,5.79.63,3.52,0,6.65-.58,9.38-1.75,2.74-1.16,5.03-2.74,6.89-4.75,1.86-2,3.28-4.31,4.25-6.91.98-2.61,1.47-5.35,1.47-8.24v-4.89h-2.93Z"/>
        <path d="M339.33,289.38c.2,1.77.34,3.72.44,5.86.1,2.14.15,3.91.15,5.31h.29c1.95-3.82,5.13-6.91,9.53-9.29s9.04-3.56,13.93-3.56c8.7,0,15.23,2.47,19.58,7.4,4.35,4.94,6.53,11.45,6.53,19.55v40.08h-9.97v-36.17c0-3.44-.29-6.56-.88-9.36s-1.59-5.19-3.01-7.19c-1.42-2-3.32-3.56-5.72-4.68s-5.4-1.68-9.02-1.68c-2.64,0-5.21.51-7.7,1.54-2.49,1.03-4.72,2.58-6.67,4.68-1.96,2.09-3.52,4.75-4.69,7.96-1.17,3.21-1.76,7.01-1.76,11.38v33.51h-9.97v-50.97c0-1.77-.05-4.05-.15-6.84-.1-2.79-.24-5.31-.44-7.54h9.53Z"/>
        <path d="M480.41,297.34h-16.13v57.39h-9.97v-57.39h-14.37v-7.96h14.37v-17.87c0-7.45,1.91-13.31,5.72-17.59,3.81-4.28,9.68-6.42,17.6-6.42,1.27,0,2.64.07,4.11.21,1.47.14,2.83.4,4.11.77l-1.76,8.38c-1.08-.28-2.15-.51-3.23-.7-1.08-.19-2.3-.28-3.67-.28-2.64,0-4.82.42-6.53,1.26-1.71.84-3.03,2.02-3.96,3.56-.93,1.54-1.56,3.33-1.91,5.38-.34,2.05-.51,4.24-.51,6.56v16.76h16.13v7.96Z"/>
        <path d="M562.39,322.05c0,4.94-.9,9.5-2.71,13.68-1.81,4.19-4.33,7.82-7.55,10.89-3.23,3.07-7.09,5.47-11.59,7.19s-9.44,2.58-14.81,2.58-10.17-.86-14.67-2.58-8.36-4.12-11.59-7.19c-3.23-3.07-5.74-6.7-7.55-10.89-1.81-4.19-2.71-8.75-2.71-13.68s.9-9.5,2.71-13.68c1.81-4.19,4.33-7.82,7.55-10.89,3.23-3.07,7.09-5.47,11.59-7.19,4.5-1.72,9.39-2.58,14.67-2.58s10.31.86,14.81,2.58c4.5,1.72,8.36,4.12,11.59,7.19,3.23,3.07,5.74,6.7,7.55,10.89,1.81,4.19,2.71,8.75,2.71,13.68ZM551.83,322.05c0-3.63-.61-7.05-1.83-10.26-1.22-3.21-2.96-6-5.21-8.38-2.25-2.37-4.99-4.26-8.21-5.66-3.23-1.4-6.84-2.09-10.85-2.09s-7.6.7-10.78,2.09c-3.18,1.4-5.89,3.28-8.14,5.66-2.25,2.37-3.98,5.17-5.21,8.38-1.22,3.21-1.83,6.63-1.83,10.26s.61,7.05,1.83,10.26c1.22,3.21,2.96,6,5.21,8.38,2.25,2.37,4.96,4.24,8.14,5.59,3.18,1.35,6.77,2.02,10.78,2.02s7.62-.68,10.85-2.02,5.96-3.21,8.21-5.59c2.25-2.37,3.98-5.17,5.21-8.38,1.22-3.21,1.83-6.63,1.83-10.26Z"/>
        <path d="M626.62,312.43c0-5.64-1.56-9.84-4.69-12.61-3.13-2.77-7.68-4.16-13.64-4.16-4.11,0-7.92.7-11.44,2.09-3.52,1.4-6.5,3.26-8.95,5.59l-5.57-6.28c2.83-2.7,6.57-4.93,11.22-6.7,4.64-1.77,9.9-2.65,15.76-2.65,3.71,0,7.19.49,10.41,1.47,3.23.98,6.06,2.44,8.51,4.4,2.44,1.96,4.35,4.42,5.72,7.4,1.37,2.98,2.05,6.47,2.05,10.47v28.63c0,2.51.1,5.12.29,7.82.2,2.7.49,4.98.88,6.84h-8.95c-.29-1.58-.54-3.3-.73-5.17-.2-1.86-.29-3.68-.29-5.45h-.29c-3.13,4.38-6.67,7.52-10.63,9.43-3.96,1.91-8.73,2.86-14.3,2.86-2.64,0-5.35-.35-8.14-1.05-2.79-.7-5.33-1.84-7.63-3.43-2.3-1.59-4.2-3.64-5.72-6.16-1.52-2.52-2.27-5.6-2.27-9.25,0-5.04,1.34-9.04,4.03-11.98,2.69-2.94,6.28-5.14,10.78-6.58,4.5-1.45,9.65-2.38,15.47-2.8,5.82-.42,11.85-.63,18.11-.63v-2.08ZM623.68,322.05c-4.11,0-8.24.16-12.39.49-4.16.33-7.92.98-11.29,1.96-3.37.98-6.14,2.4-8.29,4.26-2.15,1.86-3.23,4.33-3.23,7.4,0,2.33.46,4.28,1.39,5.87.93,1.58,2.17,2.86,3.74,3.84,1.56.98,3.3,1.68,5.2,2.09,1.91.42,3.84.63,5.79.63,3.52,0,6.65-.58,9.38-1.75,2.74-1.16,5.03-2.74,6.89-4.75,1.86-2,3.28-4.31,4.25-6.91.98-2.61,1.47-5.35,1.47-8.24v-4.89h-2.93Z"/>
        <path d="M680.07,291.26c4.06-2.37,8.58-3.56,13.56-3.56,1.86,0,3.79.19,5.79.56,2,.37,3.96,1.1,5.87,2.16,1.91,1.07,3.67,2.49,5.28,4.26,1.61,1.77,3.01,4.05,4.18,6.84,2.35-4.47,5.55-7.89,9.61-10.26,4.06-2.37,8.87-3.56,14.44-3.56,8.7,0,15.23,2.47,19.58,7.4,4.35,4.94,6.53,11.45,6.53,19.55v40.08h-9.97v-36.17c0-6.89-1.35-12.43-4.03-16.62-2.69-4.19-7.26-6.28-13.71-6.28-3.62,0-6.67.7-9.17,2.09-2.49,1.4-4.5,3.24-6.01,5.51-1.52,2.28-2.62,4.87-3.3,7.75-.69,2.89-1.03,5.86-1.03,8.94v34.77h-9.97v-38.12c0-3.16-.24-6.05-.73-8.66-.49-2.61-1.35-4.82-2.57-6.63-1.22-1.82-2.91-3.21-5.06-4.19-2.15-.98-4.89-1.47-8.21-1.47-2.35,0-4.72.51-7.11,1.54-2.4,1.03-4.55,2.58-6.45,4.68-1.91,2.09-3.45,4.75-4.62,7.96-1.17,3.21-1.76,7.01-1.76,11.38v33.51h-9.97v-50.97c0-1.77-.05-4.05-.15-6.84-.1-2.79-.24-5.31-.44-7.54h9.53c.2,1.77.34,3.72.44,5.86.1,2.14.15,3.91.15,5.31h.29c1.95-3.82,4.96-6.91,9.02-9.29Z"/>
      </g>
    </g>
  </g>
</svg>