<svg width="155" height="52" viewBox="0 0 155 52" fill="none" xmlns="http://www.w3.org/2000/svg">
<path d="M19.7008 0L22.808 14.9892L19.4565 23.0531L16.1172 14.9887L19.2123 0H19.7008Z" fill="#232323"/>
<path d="M0 11.883L13.3041 16.9007L17.5855 24.2079L9.61045 23.1406L0 12.7698V11.883Z" fill="#232323"/>
<path d="M0 37.6002L9.61458 27.4112L17.5855 26.3396L13.0828 33.6723L0 38.487V37.6002Z" fill="#232323"/>
<path d="M70.5848 23.9793C70.5848 30.6704 65.6055 36.0946 59.4631 36.0946C53.3207 36.0946 48.3414 30.6704 48.3414 23.9793C48.3414 17.2883 53.3207 11.8641 59.4631 11.8641C65.6055 11.8641 70.5848 17.2883 70.5848 23.9793ZM59.0722 15.6544C50.0402 16.2255 50.502 32.6105 59.6762 32.2884C68.9297 31.9636 68.4635 15.0606 59.0722 15.6544Z" fill="#232323"/>
<path d="M130.089 28.7322C130.367 32.7172 134.885 34.2008 136.868 30.6683C137.105 30.6264 139.548 32.1481 139.976 32.4181C140.076 32.4807 140.295 32.4225 140.181 32.7183C139.856 33.5556 138.24 34.8596 137.474 35.269C129.988 39.2693 123.384 30.2593 127.189 22.6468C130.628 15.7668 141.486 18.4075 141.486 25.8057V28.4661L141.242 28.7322H130.089ZM137.416 25.8944C137.547 20.9053 130.147 20.9015 130.252 25.8944H137.416Z" fill="#232323"/>
<path d="M122.925 35.6492H119.018V25.2737C119.018 25.1551 118.704 24.3087 118.619 24.1118C117.498 21.5172 113.698 21.5965 112.603 24.1385C112.5 24.3769 112.18 25.4523 112.18 25.6285V35.6492H108.272V18.9774H112.18L112.181 20.7509C115.008 17.6268 120.667 17.8322 122.353 22.1723C122.488 22.5199 122.925 23.9378 122.925 24.2095V35.6491L122.925 35.6492Z" fill="#232323"/>
<path d="M88.5715 35.6492H84.664V25.6285C84.664 25.2864 84.2376 24.1687 84.044 23.8208C82.7707 21.5316 79.2648 21.6976 78.2215 24.1092C78.1391 24.2997 77.8258 25.1635 77.8258 25.2737V35.6492H73.9183V18.9774H77.8258L77.8275 20.7509C80.8453 17.4071 86.5226 17.9508 88.0861 22.61C88.2207 23.0108 88.5716 24.2256 88.5716 24.5641V35.6491L88.5715 35.6492Z" fill="#232323"/>
<path d="M96.2236 12.2378H92.3161V35.6492H96.2236V12.2378Z" fill="#232323"/>
<path d="M39.8897 11.7074L29.4652 23.1406L21.1669 24.2973L25.5751 16.9519L39.8897 11.7074Z" fill="#232323"/>
<path d="M40.0525 39.0173L25.6643 33.6756L24.0933 31.3076L21.1669 26.25L29.3025 27.4067L40.0525 39.0173Z" fill="#232323"/>
<path d="M19.5362 27.4904L22.7219 35.3804L19.2937 51.2586L15.962 35.392C17.0979 33.1444 17.9256 29.8024 19.1731 27.7191C19.2752 27.5485 19.1545 27.4016 19.5361 27.4904H19.5362Z" fill="#232323"/>
<path d="M104.202 18.9774H100.294V35.6492H104.202V18.9774Z" fill="#232323"/>
<path d="M150.441 13.6566L150.603 18.4463L155 18.6228V21.4605L150.603 21.637L150.441 26.6039H147.836L147.674 21.637L143.277 21.4605V18.6228L147.674 18.4463L147.836 13.6566H150.441Z" fill="#232323"/>
<path d="M102.286 16.9046C103.696 16.9046 104.839 15.6596 104.839 14.1238C104.839 12.588 103.696 11.343 102.286 11.343C100.876 11.343 99.7331 12.588 99.7331 14.1238C99.7331 15.6596 100.876 16.9046 102.286 16.9046Z" fill="#232323"/>
</svg>
