<svg width="221" height="38" viewBox="0 0 221 38" fill="none" xmlns="http://www.w3.org/2000/svg">
<path d="M0 5.22438L3.99491 4.97249V1.34531L4.3699 0.972511H36.9592V38H0V5.22438ZM35.7092 2.22187H5.24488V6.22689H1.24997V36.7506H35.7092V2.22187Z" fill="black"/>
<path d="M101.883 11.2294C101.798 11.4762 102.133 11.7735 102.133 11.8541V29.6172C102.618 30.398 104.138 29.9194 104.128 30.9925C103.323 31.2444 99.5177 31.4862 99.1678 30.9623C99.1678 28.7205 98.7728 30.0303 97.8678 30.6046C94.8679 32.5088 90.8679 31.1134 89.813 27.6978C87.828 21.2646 92.9879 14.7356 99.1328 19.4863V12.8566C99.1328 12.3981 97.3978 11.7483 96.8828 11.98V11.2294H101.878H101.883ZM95.7628 18.8666C92.4229 18.9321 92.4629 23.9648 92.6329 26.3779C93.0579 32.4031 98.7428 31.1638 99.1478 26.6298C99.3928 23.9195 99.6377 18.791 95.7628 18.8666Z" fill="black"/>
<path d="M211.005 11.2294C210.92 11.4762 211.255 11.7735 211.255 11.8541V24.2369C212.095 23.194 215.97 20.7961 215.485 19.3905C215.305 18.8616 214.1 19.0631 214.255 18.2319H220V18.9825C217.875 18.8767 216.135 20.6147 214.825 22.1059L219.495 29.8036L221 30.4938L220.755 31.1235H215.25L215.005 30.4938L216.005 30.2368L212.635 23.99L211.255 25.1638C211.445 26.2419 210.91 29.1386 211.485 29.8892C211.83 30.3376 213.255 30.3275 213.005 30.8615C212.38 31.6373 211.455 31.0026 210.645 30.9774C209.645 30.9522 206.945 31.3602 206.415 31.2142C205.025 30.8262 207.84 30.0404 207.95 29.9295C208.125 29.7582 208.205 29.3502 208.235 29.0983C208.85 24.1663 207.81 18.1412 208.27 13.0883C208.265 11.9044 206.95 11.9347 206.005 11.975V11.2243H211L211.005 11.2294Z" fill="black"/>
<path d="M162.311 18.2369C162.361 19.2041 160.846 18.8817 160.826 19.854L163.191 27.2494C163.641 27.2998 163.686 26.9321 163.806 26.6147C164.276 25.3955 165.506 21.7532 165.566 20.6046C165.686 18.3931 164.276 19.6575 163.811 18.2369H170.056C170.211 19.1638 168.941 18.8465 168.666 19.2193C168.496 19.4963 168.546 19.7885 168.571 20.0857C168.656 21.1134 170.201 25.6374 170.696 26.7457C170.831 27.0479 170.676 27.3502 171.181 27.2444C171.496 25.3704 173.261 22.3578 173.321 20.5996C173.381 18.8414 171.896 19.456 171.556 18.2319H176.301C176.351 19.0177 175.421 19.0329 174.946 19.5014C174.676 19.7684 174.366 20.3779 174.186 20.7407C173.296 22.4938 171.176 30.6449 170.456 31.2645C170.231 31.456 170.016 31.5668 169.716 31.4811C168.886 31.2343 166.986 23.1991 166.191 21.99L163.026 31.0781C162.761 31.7078 161.856 31.6827 161.616 31.0781L157.446 19.2444C157.076 18.8817 156.211 18.9875 156.331 18.2369H162.326H162.311Z" fill="black"/>
<path d="M118.612 18.2369V20.2369L120.277 18.781C121.807 17.6374 125.152 17.4208 126.362 19.1084C127.957 21.3351 126.567 26.6399 127.157 29.32C127.357 30.2167 128.042 30.3678 128.852 30.5038C128.767 31.8338 127.332 31.0026 126.492 30.9925C125.137 30.9774 123.937 31.1789 122.607 31.2494L122.757 30.4786C123.207 30.3325 123.867 30.3325 124.062 29.8288C124.602 28.4283 124.582 21.4661 123.732 20.247C122.492 18.4737 119.817 19.7633 119.067 21.5668C118.492 22.9522 118.262 28.7658 119.102 29.8842C119.437 30.3275 120.577 30.398 120.362 30.8665C119.742 31.6474 118.827 31.0026 118.002 30.9824C116.652 30.9572 115.417 31.2041 114.117 31.1235L113.872 30.4937C114.882 30.1864 115.697 30.3023 115.847 29.0983C116.087 27.1588 116.102 22.0354 115.882 20.0908C115.752 18.9271 114.842 18.9674 113.867 18.9774V18.2268H118.612V18.2369Z" fill="black"/>
<path d="M85.9631 29.4409C86.508 30.0252 87.703 29.0479 87.898 29.2444C87.593 32.2368 83.6281 31.8288 82.7781 29.2444C81.4632 32.393 75.3183 32.3829 74.7233 28.8111C73.9533 24.1563 79.3982 23.1185 82.9031 23.2394C83.0481 20.3679 81.6532 17.1991 78.5182 19.4863C78.2732 19.9598 78.7632 20.6953 78.6632 21.3452C78.4332 22.8817 75.0783 23.2797 75.4133 20.6298C75.8283 17.3452 84.9431 16.2923 85.6281 21.1286C85.8481 22.6752 85.2631 28.6852 85.9581 29.4358L85.9631 29.4409ZM81.6032 24.0505C80.2232 24.1865 78.4282 24.7457 78.0282 26.2318C77.6282 27.7179 77.7382 29.4308 79.4032 29.8741C82.4981 30.7003 83.2681 26.7154 82.8681 24.3981L82.4931 24.0102C82.1881 23.9094 81.8982 24.0202 81.6032 24.0505Z" fill="black"/>
<path d="M65.8785 17.7936C75.1183 17.4359 74.7683 32.4887 65.3235 31.4711C57.5737 30.6348 57.8437 18.1059 65.8785 17.7936ZM65.1085 18.7961C62.3636 19.5215 62.5836 26.5744 63.4136 28.6247C64.6535 31.6776 68.0335 31.3451 69.0384 28.2368C69.9834 25.325 69.9234 17.5215 65.1035 18.791L65.1085 18.7961Z" fill="black"/>
<path d="M183.496 17.7936C192.231 17.3502 192.611 30.8011 184.661 31.4912C175.496 32.2872 174.976 18.2268 183.496 17.7936ZM182.966 18.786C178.891 19.718 180.046 33.8388 185.411 30.2419C188.086 28.4535 188.441 17.5316 182.966 18.786Z" fill="black"/>
<path d="M142.837 24.4887H133.847C133.087 28.9824 136.677 31.6222 140.627 29.1537C141.422 28.655 141.872 27.6877 142.837 27.7431C142.522 29.4409 140.302 31.1537 138.657 31.4358C133.772 32.267 130.277 29.0529 130.627 24.1462C131.227 15.7382 143.367 15.6626 142.837 24.4887ZM133.847 23.4862H139.842C140.002 16.7659 134.372 17.4712 133.847 23.4862Z" fill="black"/>
<path d="M150.327 18.2369H154.072V18.9875H150.327V28.6197C150.327 29.4509 151.797 29.5769 152.432 29.4862C153.667 29.3149 153.857 27.9396 155.071 27.995C154.721 30.7708 150.147 32.6499 148.087 30.8615C146.667 29.6273 147.617 21.1487 147.332 18.9825L145.082 18.8565C145.097 18.2268 146.437 17.8742 146.957 17.4812C148.382 16.3981 149.127 14.781 149.082 12.9775L150.332 13.3553V18.2319L150.327 18.2369Z" fill="black"/>
<path d="M55.4337 11.2294V29.1184C55.4337 29.2041 55.9087 29.8943 56.0487 30.0051C56.2437 30.1562 58.5187 30.8716 57.2787 31.2242C56.7637 31.3703 54.0338 30.9673 53.0488 30.9874C52.4088 31.0026 50.8088 31.6625 50.4389 30.8716C50.1789 30.3124 51.7038 30.3124 52.0788 30.0202C52.4038 29.7582 52.6038 29.0227 52.6638 28.6046C53.0938 25.5013 52.9938 17.0933 52.6988 13.854C52.6238 13.043 52.5588 12.4032 51.6988 12.1059C51.1538 11.9145 50.1189 12.1765 50.1889 11.2394H55.4337V11.2294Z" fill="black"/>
<path d="M197.521 18.2369V20.7356L199.935 18.524C201.185 17.8087 202.405 17.5316 203.765 18.1109C206.055 19.0832 205.32 22.3326 203.01 21.8893C201.185 21.5366 202.23 19.2596 200.9 19.2394C199.036 19.592 197.956 21.8842 197.771 23.6122C197.651 24.7406 197.551 29.456 198.441 30.0152C198.891 30.2973 199.96 30.3829 200.52 30.4988L200.275 31.1235C198.601 31.189 196.881 30.932 195.141 30.9874C194.226 31.0177 192.406 31.8892 192.281 30.4988L194.471 29.9396C194.676 29.4509 194.941 28.8716 195.006 28.3477C195.211 26.6399 195.231 22.3124 195.031 20.6097C194.781 18.4535 193.326 19.4308 192.276 18.8666C191.856 18.645 192.296 18.2369 192.406 18.2369H197.526H197.521Z" fill="black"/>
<path d="M110.293 27.8187C112.177 29.8892 108.948 32.9068 107.118 30.8716C105.108 28.6348 108.428 25.7734 110.293 27.8187Z" fill="black"/>
<path d="M32.9643 7.72814V27.7431H8.36481L7.98982 27.3703V8.10093L8.36481 7.72814H32.9593H32.9643ZM15.9496 13.5165C14.3147 12.776 14.6397 13.6626 14.2097 14.5341C13.7797 15.4057 13.3347 16.2319 12.8397 17.2142C12.7097 17.4712 12.3597 17.6374 12.2747 17.9094C11.8747 19.1739 13.5647 19.2646 13.8747 18.7507C14.1847 18.2369 13.6297 17.4963 14.7197 17.0832L14.6047 16.2319H15.7296C15.3297 17.1991 16.1746 17.5165 16.2146 17.6626C16.4996 18.6752 16.0946 19.5215 17.8646 18.7457L17.9446 17.4963L17.2496 17.4661C17.5496 16.2016 16.7296 16.2369 16.5296 15.9397C16.4896 15.8843 16.7096 15.4208 16.5646 15.043C16.4346 14.7004 15.6396 14.6299 15.9446 13.5115L15.9496 13.5165ZM26.9394 13.5115L25.4894 13.2445C25.6544 13.9699 24.7544 14.8163 24.7294 14.912C24.4744 15.9346 24.3195 16.2117 23.8295 17.2142C23.7045 17.4712 23.3295 17.6424 23.2595 17.9094C23.0595 18.6802 23.5895 19.1689 24.3395 18.9875C25.2794 18.7608 24.8094 18.2923 24.9844 17.6626C25.0244 17.5165 25.8744 17.1991 25.4694 16.2319H26.7194C26.3194 17.2042 27.1644 17.5165 27.2044 17.6626C27.4894 18.6752 27.0844 19.5215 28.8543 18.7457L28.9343 17.4963L28.2394 17.4661C28.5744 16.252 27.6494 16.1664 27.5194 15.9296C27.3594 15.6475 27.5344 15.2294 27.4594 14.9069C27.4394 14.8213 26.6044 14.4284 26.9344 13.5115H26.9394ZM22.7245 19.985H19.2296V21.4862H22.7245C22.9145 20.9271 22.9145 20.5442 22.7245 19.985Z" fill="black"/>
<path d="M30.2143 31.2444V32.4937H18.1046L17.7596 32.0857L17.7296 31.2444H30.2143Z" fill="black"/>
</svg>
